<svg xmlns="http://www.w3.org/2000/svg" viewBox="0 0 1091.05 179.95"><defs><style>.cls-1{fill:#54585b;}.cls-2{fill:#009492;}.cls-3{fill:#fefefe;}.cls-4{fill:#4e5153;}.cls-5{fill:#45494b;}.cls-6{fill:#46494c;}.cls-7{fill:#4e5154;}.cls-8{fill:#555759;}.cls-9{fill:#3b3f42;}.cls-10{fill:#383c3f;}.cls-11{fill:#3c3f42;}.cls-12{fill:#3a3e41;}.cls-13{fill:#3b3e41;}.cls-14{fill:#01867f;}.cls-15{fill:#666a6d;}.cls-16{fill:#494c4e;}.cls-17{fill:#676b6e;}.cls-18{fill:#66696d;}.cls-19{fill:#616568;}.cls-20{fill:#7c8083;}.cls-21{fill:#7f8386;}.cls-22{fill:#979b9e;}.cls-23{fill:#a1a5a8;}.cls-24{fill:#3b3f43;}.cls-25{fill:#464a4d;}.cls-26{fill:#3c4041;}.cls-27{fill:#4f5255;}.cls-28{fill:#424748;}.cls-29{fill:#46484c;}.cls-30{fill:#363a3d;}.cls-31{fill:#373b3f;}.cls-32{fill:#474a4c;}.cls-33{fill:#3c4043;}.cls-34{fill:#484c4f;}.cls-35{fill:#4a4e50;}.cls-36{fill:#393c3e;}.cls-37{fill:#4f5254;}.cls-38{fill:#3a3d3f;}.cls-39{fill:#4a4d50;}.cls-40{fill:#4e5052;}.cls-41{fill:#4c5052;}.cls-42{fill:#4b4e51;}.cls-43{fill:#4c5051;}.cls-44{fill:#494d50;}.cls-45{fill:#4c4f51;}.cls-46{fill:#3c3f41;}.cls-47{fill:#4c5054;}.cls-48{fill:#4f5356;}.cls-49{fill:#545556;}.cls-50{fill:#515457;}.cls-51{fill:#414545;}.cls-52{fill:#474b4d;}.cls-53{fill:#545758;}.cls-54{fill:#505355;}.cls-55{fill:#4e5255;}.cls-56{fill:#414446;}.cls-57{fill:#535659;}.cls-58{fill:#525457;}.cls-59{fill:#35393c;}.cls-60{fill:#434548;}.cls-61{fill:#434649;}.cls-62{fill:#525557;}.cls-63{fill:#424548;}.cls-64{fill:#4c5053;}.cls-65{fill:#444749;}.cls-66{fill:#4c4f52;}.cls-67{fill:#4d5052;}.cls-68{fill:#505354;}.cls-69{fill:#505455;}.cls-70{fill:#45494d;}.cls-71{fill:#515456;}.cls-72{fill:#4f5253;}.cls-73{fill:#4d4f51;}.cls-74{fill:#4f5355;}.cls-75{fill:#525456;}.cls-76{fill:#515558;}.cls-77{fill:#505255;}.cls-78{fill:#4e5253;}.cls-79{fill:#474a4d;}.cls-80{fill:#4c4e50;}.cls-81{fill:#505254;}.cls-82{fill:#494d4f;}.cls-83{fill:#4a4e51;}.cls-84{fill:#484b4d;}.cls-85{fill:#535658;}.cls-86{fill:#393c40;}.cls-87{fill:#4a4c50;}.cls-88{fill:#4f5154;}.cls-89{fill:#373b3e;}.cls-90{fill:#3d4042;}.cls-91{fill:#3e4143;}.cls-92{fill:#404346;}.cls-93{fill:#4d5154;}.cls-94{fill:#515557;}.cls-95{fill:#474b4e;}.cls-96{fill:#4a4e4f;}.cls-97{fill:#4b4f52;}.cls-98{fill:#3e4144;}.cls-99{fill:#3c4042;}.cls-100{fill:#45484a;}.cls-101{fill:#4a4d4f;}.cls-102{fill:#088784;}.cls-103{fill:#3e4042;}.cls-104{fill:#424446;}.cls-105{fill:#46494b;}.cls-106{fill:#4d4f52;}.cls-107{fill:#4d5053;}.cls-108{fill:#4f5153;}.cls-109{fill:#414548;}.cls-110{fill:#3d3f42;}.cls-111{fill:#4c4e4f;}.cls-112{fill:#424547;}.cls-113{fill:#464748;}.cls-114{fill:#46484a;}.cls-115{fill:#393e3f;}.cls-116{fill:#45494c;}.cls-117{fill:#4b4e50;}.cls-118{fill:#47494b;}.cls-119{fill:#3b3f41;}.cls-120{fill:#444849;}.cls-121{fill:#424648;}.cls-122{fill:#46484b;}.cls-123{fill:#454849;}.cls-124{fill:#44474b;}.cls-125{fill:#3b3e40;}.cls-126{fill:#3f4245;}.cls-127{fill:#434648;}.cls-128{fill:#494c4d;}.cls-129{fill:#444648;}.cls-130{fill:#434547;}.cls-131{fill:#028683;}.cls-132{fill:#393b3e;}.cls-133{fill:#505457;}.cls-134{fill:#444649;}.cls-135{fill:#45484b;}.cls-136{fill:#454749;}.cls-137{fill:#3f4142;}.cls-138{fill:#494b4d;}.cls-139{fill:#464a4c;}.cls-140{fill:#444748;}.cls-141{fill:#484b4e;}.cls-142{fill:#393d40;}.cls-143{fill:#3d4041;}.cls-144{fill:#3d4043;}.cls-145{fill:#424447;}.cls-146{fill:#4b4d50;}.cls-147{fill:#434549;}.cls-148{fill:#3d4143;}.cls-149{fill:#3f4243;}.cls-150{fill:#4f5052;}.cls-151{fill:#3f4144;}.cls-152{fill:#4d5051;}.cls-153{fill:#3c3e40;}.cls-154{fill:#3a3e40;}.cls-155{fill:#43474a;}.cls-156{fill:#414649;}.cls-157{fill:#35383a;}.cls-158{fill:#393d41;}.cls-159{fill:#434748;}.cls-160{fill:#47494a;}.cls-161{fill:#3e4244;}.cls-162{fill:#53575a;}.cls-163{fill:#484c50;}.cls-164{fill:#424649;}.cls-165{fill:#414346;}.cls-166{fill:#4b4d4f;}.cls-167{fill:#4a4d4e;}</style></defs><title>logo-avonale_1</title><g id="Layer_2" data-name="Layer 2"><g id="Layer_1-2" data-name="Layer 1"><path class="cls-1" d="M655,175.07c-1.19.3-2.25-.26-3.33-.58a44,44,0,0,1-10.16-4.09c-.56-.45-1.06-1-1.89-.94a40.52,40.52,0,0,1-9.4-6.44,6.45,6.45,0,0,0-2.4-2.09c-3.25-3.2-6.54-6.38-9-10.32-.34-.56-.65-1.14-1-1.71a1.36,1.36,0,0,0-.81-1.36,40.66,40.66,0,0,1-4.69-10.28,2.72,2.72,0,0,0-.69-2.18,12.2,12.2,0,0,1-1.1-5.11,72.43,72.43,0,0,1-1.23-12.89,78,78,0,0,1,.58-9.16,1.3,1.3,0,0,0-.07-.87,45.89,45.89,0,0,1,3.9-14c.84-.49.68-1.56,1.28-2.2.63-1.56,1.65-3,2.09-4.6a42.79,42.79,0,0,1,7.34-9.84c1.41-1.09,2.46-2.58,3.92-3.64.27-.41.38-1,.93-1.13.78-.16,1.16-.81,1.63-1.36a54.64,54.64,0,0,1,18.76-10.21c2-.64,4-1.21,6.07-1.65a13.88,13.88,0,0,1,2.11-.15,75.22,75.22,0,0,1,10.6-.83,46.82,46.82,0,0,1,11,.88,4.21,4.21,0,0,0,1.8.15c1.71.06,3.27,1,5,.88a31.58,31.58,0,0,1,7.3,2.59c.59.7,1.5.87,2.23,1.34l-.05,0c.72.29,1.33.85,2.17.83a36.7,36.7,0,0,1,6.21,4,2.48,2.48,0,0,0,.85,1.07c1.6,0,2,1.64,3.15,2.29a52.1,52.1,0,0,0,4.64,4.64c4.71,4.78,8.09,10.47,11.19,16.35.64,1.23-.15,1.46-.88,1.84-6.42,3.38-12.76,6.91-19.08,10.45-7.8,4.38-15.66,8.65-23.4,13.12-.52.3-1.08.54-1.61.81a2.87,2.87,0,0,0-2.13,1.16c-.77.53-1.47,1.22-2.53,1.09-.27.22-.62.36-.74.73a6.91,6.91,0,0,1-2.18,1.19c-.68.18-1.48.16-1.79,1l-4.47,2.48a7.32,7.32,0,0,0-3.24,1.54l0,0c-1,.76-2.38.93-3.3,1.86l0,0c-1,.74-2.38.94-3.32,1.85-.82,1.14-2.14,1.49-3.3,2.09a2.08,2.08,0,0,0-1.44.44c-1,1.14-2.19.75-3.36.35.16-.27.46-.14.68-.25-.32.08-.67,0-1,.18a1.55,1.55,0,0,1-1.16-.66,1.49,1.49,0,0,0-1.06-1.08,60.78,60.78,0,0,1-4.7-9.15c0-1,0-1.94,0-2.91a1.82,1.82,0,0,1,.7-1.48c.63-.21,1-.79,1.45-1.16s1.21-.33,1.45-1a5.21,5.21,0,0,1,1.86-1,2.73,2.73,0,0,0,2.12-1.16,5.19,5.19,0,0,1,1.87-1.06,5.6,5.6,0,0,0,2.44-1.11,3.8,3.8,0,0,0,1.52-1.1,2.35,2.35,0,0,1,1.42-.72c.66-.3,1.52-.25,1.87-1.09,6.1-3.59,12.29-7,18.54-10.32a4.09,4.09,0,0,0,2.22-1,.81.81,0,0,1,.76-.62c.69.15,1-.33,1.4-.77,2.56-1.46,5.1-2.95,7.67-4.37,5.05-2.79,5.27-6.86.52-10.23-.29-.21-.57-.45-.85-.67-.89-1.29-2.46-1.43-3.67-2.19-.59-.16-1.13-.54-1.78-.41l-3.66-1a35.09,35.09,0,0,0-11.9-1,12.41,12.41,0,0,1-2,.25,18,18,0,0,0-4.89.83c-.54.41-1.44-.08-1.82.72a43,43,0,0,0-11.8,6c-.95,0-1.23.91-1.79,1.43A39.83,39.83,0,0,0,633.55,102a4.29,4.29,0,0,1-.74,1.81c-.31.57-.7,1.11-.42,1.81l-.63,2.94a2.19,2.19,0,0,0-.6,1.28c-.21,4.22-.61,8.43,0,12.64.11.81-.24,1.69.3,2.44l0,0a1.24,1.24,0,0,1,.15.65c0,.23.05.47-.11.66.29-.11,0-.52.35-.62a81.16,81.16,0,0,0,2.44,8.48,4.52,4.52,0,0,0,.91,2.55c.4.75.55,1.66,1.34,2.16a79.68,79.68,0,0,0,5.82,7.73,17.94,17.94,0,0,0,2.75,2.69c1.27-.07,1.76,1.14,2.67,1.68a45.85,45.85,0,0,0,13.51,5.4c.61,1,1.67.28,2.44.65a73.46,73.46,0,0,0,11.2,0c.67-.19,1.39,0,2.06-.27a30.83,30.83,0,0,0,6.56-1.61,2.54,2.54,0,0,1,1.78-.92c.78.17,1.32-.41,2-.63.42-.29,1-.37,1.25-.89l5.7-4a4.39,4.39,0,0,0,2.32-2.32,54.25,54.25,0,0,0,5.09-7.55,3.14,3.14,0,0,0,1.18-2.46,95.83,95.83,0,0,0,3.73-11.06,3.85,3.85,0,0,1,3.09-3.16,5.33,5.33,0,0,1,3-.17,38.51,38.51,0,0,1,4.25.73,19.86,19.86,0,0,1,5.74.71,5.4,5.4,0,0,0,2-.12c1.93.27,2.5,2.08,3.66,3.23v3.27a13.23,13.23,0,0,0-1.49,5.9c.16,1.83-.68,3.41-1.31,5a58.21,58.21,0,0,1-8,14.1,6.67,6.67,0,0,1-1.62,1.69,4.37,4.37,0,0,0-2.19,2.21,7.7,7.7,0,0,1-2.67,2.68,3.6,3.6,0,0,0-1.8,1.6,2.21,2.21,0,0,1-.77.58c-.57.22-1.1.49-1.18,1.2a25.5,25.5,0,0,1-7.24,4.73,6.45,6.45,0,0,0-2.51.92,3.62,3.62,0,0,0-1.38.91,3.85,3.85,0,0,1-2.65,1.31,2.18,2.18,0,0,0-2.49,1,38.85,38.85,0,0,1-14.63,3.26c-.29,0-.61,0-.85.19h-.73c-1.38-.69-2.8-.35-4.21-.2-1.12,0-2.23,0-3.34,0a21.33,21.33,0,0,0-3.66-.18A18.77,18.77,0,0,0,660,176C658.32,175.77,656.7,175.29,655,175.07Z"/><path class="cls-1" d="M105.89,76.45a20.53,20.53,0,0,1,3.73,5.1c0,.3.06.57.4.66a5,5,0,0,1,1.08,1.88,9,9,0,0,0,1.92,4,12,12,0,0,1,1.3,3.33c-.28,1.33.63,2.39.82,3.61,1.32,2.13,1.37,4.58,1.72,6.94a17.23,17.23,0,0,0,.22,4.12,24.71,24.71,0,0,1,.19,3.44q0,31,0,62A5.31,5.31,0,0,1,117,174c-.61.41-1.29.2-1.93.21-5.22.11-10.44-.18-15.66.15-1,.06-1.44-.63-1.85-1.37a5,5,0,0,1-.71-3.3v-60c-.22-2.47-.09-5-1.07-7.35a31.74,31.74,0,0,0-5.14-11A24.54,24.54,0,0,0,87,86.94c-.46-.55-.84-1.17-1.61-1.34A8,8,0,0,1,83,83.71c-1.16-1.3-3.12-1.44-4.19-2.88-.1.29-.17.61-.6.39A59.48,59.48,0,0,0,68.34,78c.22-.3.5-.25.79-.18-.94-.23-1.92-.17-2.87-.4a.88.88,0,0,0-1.35-.23,48.57,48.57,0,0,0-13.3.33c-.58-.06-.84-.3-.39-.9-.66.16-.14.94-.7,1.11a7.49,7.49,0,0,1-1.76.26c-.08,0-.21,0-.23.14a.47.47,0,0,1,.43.25,40.45,40.45,0,0,0-13.82,7.1c-.35.28-.57.77-1.08.86A5.67,5.67,0,0,0,31.38,89a42.43,42.43,0,0,0-8.68,16.5c-.15.55-.05,1.25-.75,1.54a42,42,0,0,0-1,12.4,30.69,30.69,0,0,0,.16,3.19,2.26,2.26,0,0,1,.14-1.91,45.26,45.26,0,0,0,5,16.75,72.69,72.69,0,0,0,4.07,6.15c.25.93,1,1.4,1.69,2l1.19,1.18A6.63,6.63,0,0,0,35,148.55a60.39,60.39,0,0,0,10.17,5.85c1,1,2.42,1,3.66,1.38l.71.06c1.67.92,3.55.84,5.37,1.08a39.78,39.78,0,0,0,7.32,0c1-.28,2,0,2.94-.46.67,0,1.28-.5,2-.31.11-.16.13-.42.43-.37a14.17,14.17,0,0,0,3.3-1.08,19.41,19.41,0,0,0,2.54-1.16c.64-.36,1.35-.58,2-1,1.44-1.58,3.39-2.48,5-3.81.86,0,1.09-.78,1.56-1.27,2.6-1.57,5.52-.44,5.77,2.18-.22,5-.26,9.93,0,14.9.06.49.05,1-.55,1.13a12.89,12.89,0,0,0-1.59,1.71A43.74,43.74,0,0,1,76,173.18a41.14,41.14,0,0,1-13.66,3.45,20.47,20.47,0,0,0-4.14.08,23.79,23.79,0,0,1-2.67,0c-1.51-.17-3-.45-4.51.21h-.36c-.5-.59-1.6.38-1.89-.74a1.56,1.56,0,0,1,1.32-.09,2.15,2.15,0,0,0-2,.38,26.8,26.8,0,0,1-10.77-2.62c-.26-1-1.08-.73-1.77-.74-3-.73-5.6-2.48-8.2-4.09-2-1.23-4.1-2.31-5.58-4.21a2.54,2.54,0,0,0-1.52-1.44,16.94,16.94,0,0,1-4.09-4.1A4.64,4.64,0,0,0,14,157.06,27.14,27.14,0,0,1,7.82,148a10.06,10.06,0,0,0-2.17-4.66,5.28,5.28,0,0,1-1.51-3.19c-.08-.59.57-1.38-.47-1.72a3.44,3.44,0,0,1-1-2.76c.11-.69.37-1.44-.59-1.79a17,17,0,0,1-1.26-6A6.87,6.87,0,0,0,1,125.66a7.1,7.1,0,0,0-.56-4.56,33.06,33.06,0,0,0-.16-3.45c-.22-.73.17-1.53-.25-2.24v-1.82c.71-.88.19-1.94.42-2.9.44-2.54.7-5.1,1.09-7.64-.09-2.79,1-5.31,1.77-7.89.36-1.21.92-2.35,1.39-3.53a2.53,2.53,0,0,0,.84-2,51.12,51.12,0,0,1,8-12.83c.26-.32.51-.68,1-.66a40.89,40.89,0,0,1,4.76-4.73c.72-1.81,2.6-2.34,3.92-3.46a24.89,24.89,0,0,1,6.28-3.8A3,3,0,0,0,31.7,63a28.73,28.73,0,0,1,8-3c1.81-.08,3.47-.82,5.21-1.18l1-.27c1.12-.23,2.32,0,3.41-.52a89.75,89.75,0,0,1,17.42-.37c1.69.17,3.37.38,5,.56a25.6,25.6,0,0,1,8.77,1.79c.36.51,1,.37,1.48.72l0-.05c1.12.35,2.16.89,3.31,1.15,3.45.64,6.27,2.66,9.21,4.38a26.71,26.71,0,0,1,5,3.74,11.28,11.28,0,0,0,1.62,1.69,8.18,8.18,0,0,1,3.13,3.1A9.28,9.28,0,0,0,105.89,76.45Z"/><path class="cls-1" d="M321.42,77.18a48.38,48.38,0,0,1,11,18.57c0,1.67.94,3.09,1.33,4.67.21.87-.09,2,.83,2.61a11.43,11.43,0,0,1,.71,3.66c-.33.6-.05,1.27-.18,1.82,0,.31.41,0,.18.09-.07,0-.11,0-.11-.15,0-.4-.18-.83.2-1.16a26.29,26.29,0,0,1,.63,6.32c-.37,2.57,0,5.17-.3,7.75-.1.77-.14,1.56-.21,2.34a51.33,51.33,0,0,0-.86,5.93c-.16,4.07-1.64,7.75-3.24,11.41a5.26,5.26,0,0,0-1.43,2.82c-.06.27,0,.6-.36.71a7,7,0,0,0-1.59,3.24,31.13,31.13,0,0,1-5.16,7.3c-.46.47-1.22.7-1.21,1.53l-5.06,5.05c-.95.23-1.41,1-2,1.69a52.83,52.83,0,0,1-16.19,9.49,43.85,43.85,0,0,1-10.78,2.95.66.66,0,0,0-.48-.15c-.13,0-.27-.06-.39,0a.29.29,0,0,1,.26.2,20.56,20.56,0,0,1-4.8.72c-1.47.06-3-.42-4.4.32h-1.46a1.67,1.67,0,0,0-.73-.33c-1.7.1-3.44-.43-5.09.33h-.37c-.45-.77-1.37-.2-1.92-.68a1.1,1.1,0,0,1,1.05-.23,7.51,7.51,0,0,0-2,.12,2.28,2.28,0,0,1-1.53-.28c.07-.15.29-.1.36-.25-.33.1-.69,0-1,.16a53.58,53.58,0,0,1-19.25-7.16c-1.6-1-3.22-1.94-4.77-3a24.44,24.44,0,0,1-4.42-3.71,71.33,71.33,0,0,0-5.36-5.36A43.08,43.08,0,0,1,223.92,146a5.57,5.57,0,0,0-1.45-2.89,34,34,0,0,1-3.2-8.43,1.72,1.72,0,0,0-.45-1.76,1.47,1.47,0,0,1-.32-1.14,2.21,2.21,0,0,0-.39-2.18l0-.7c-.19-2.79-.77-5.54-.88-8.34-.5-4.78.11-9.49.75-14.2.17-1.25.47-2.48.52-3.75a22.51,22.51,0,0,1,1.73-6.17c1.16-1.83,1.55-4,2.71-5.83.65-1.6,1.71-3,2.16-4.69a37.25,37.25,0,0,1,5.46-7.61,4.45,4.45,0,0,0,1.76-2l3.53-3.51c.92-.28,1.4-1.07,2-1.75a53.58,53.58,0,0,1,16.74-9.85c.44.11.85.13,1.06-.39a31.57,31.57,0,0,1,7.32-2.15c.76.41,1.46-.07,2.18-.15.24-.08.5,0,.75-.07-.28,0-.58.07-.8-.19a14.76,14.76,0,0,1,4.42-.67,15.81,15.81,0,0,0,4-.07,63.83,63.83,0,0,1,12.28.57,1,1,0,0,0,.51-.15,16.82,16.82,0,0,1,4.75,1,2.11,2.11,0,0,0,1.8.46,43,43,0,0,1,12,4.73,1.37,1.37,0,0,0,1.45.76c3.62,2.14,7.23,4.3,10.21,7.34A65.39,65.39,0,0,0,321.42,77.18Z"/><path class="cls-2" d="M376.45,5.44a9.38,9.38,0,0,1,3-2.11,3.67,3.67,0,0,0,2.41-1.21A17.78,17.78,0,0,1,387.4.33c.74-.07,1.55.34,2.2-.33h5.1c1.07.74,2.37.7,3.55,1.06a23.44,23.44,0,0,1,16.07,26.31C412.45,38.9,402,47.21,390,46.66A23.23,23.23,0,0,1,368,25.47a22.19,22.19,0,0,1,6.83-18.6A2.4,2.4,0,0,0,376.45,5.44Z"/><path class="cls-3" d="M4.41,139.81a10.73,10.73,0,0,0,1.37,3.3,18.75,18.75,0,0,1,2.28,4.7,38.49,38.49,0,0,0,6.26,9.12c.75.74,1.72,1.29,2.06,2.38l3.88,3.84c.76.17,1.13.81,1.61,1.33a44.19,44.19,0,0,0,13.86,8.4,1.47,1.47,0,0,1,1.33.49,37.64,37.64,0,0,0,11,2.83c.23-.17.45-.22.63.07.52.53,1.46-.09,1.91.68-16.45,0-32.89,0-49.34,0-1.08,0-1.3-.22-1.3-1.31Q.06,149,0,122.33a.35.35,0,0,1,.5,0c.44.65.27,1.45.53,2.15a10.39,10.39,0,0,1,.06,1.37c-.13.63.32,1.24,0,1.88A23.9,23.9,0,0,0,2.56,134,1.57,1.57,0,0,1,3,135.44a9.1,9.1,0,0,0,1,3.05A1.16,1.16,0,0,1,4.41,139.81Z"/><path class="cls-3" d="M708.37,163.14l.54-.47c.6-.64,1.06-1.44,2-1.71a9.81,9.81,0,0,0,2.42-2.39c.34-1.09,1.31-1.63,2.05-2.37a48.46,48.46,0,0,0,9.23-14.93c.77-1.88,1.76-3.72,1.75-5.84.11-1.61.82-3.09,1-4.69,0-.53.39-.71.88-.4,0,15.11,0,30.22,0,45.33,0,1.09-.22,1.31-1.31,1.31-17.17,0-34.34,0-51.51,0,1.73-.94,3.7-.67,5.54-1.07A54,54,0,0,0,691.16,173c.65-.36,1.17-1.11,2.09-.78.9-.38,2-.41,2.55-1.42.56-.36,1.27-.4,1.79-.85a17.14,17.14,0,0,1,2.29-1,30.69,30.69,0,0,0,7.22-4.75A1.81,1.81,0,0,1,708.37,163.14Z"/><path class="cls-4" d="M163.87,177c-.5-.85-1.68-.26-2.21-1a.52.52,0,0,1,.65-.63c2.77.62,5.65,0,8.4.78a.63.63,0,0,1,.08.9h-.37a9,9,0,0,0-4,0Z"/><path class="cls-5" d="M495.91,177c-.82-.83-2-.36-2.91-.8a.41.41,0,0,1,.21-.54,15.65,15.65,0,0,1,7.85.72c-.39.91-1.36.07-1.87.62Z"/><path class="cls-6" d="M510.83,176.18c-.92.43-2.07,0-2.9.77h-2.19c-.64-.39-1.34-.1-2-.19s-1.26.35-1.69-.37a.87.87,0,0,1,.67-.54c2.36-.24,4.74-.35,7.11-.44C510.26,175.39,510.8,175.52,510.83,176.18Z"/><path class="cls-7" d="M1.54,103.05c.77.81,0,1.62-.09,2.38-.28,1.75,0,3.57-.69,5.25-.36-.12-.45-.52-.73-.73v-.72a.55.55,0,0,1,.31,0c.52-.59,0-1.37.38-2A8.32,8.32,0,0,1,1.54,103.05Z"/><path class="cls-8" d="M.33,122.35l-.15,0-.15,0v-.73a.89.89,0,0,1,.74-.36c1.32,1.29.75,2.88.71,4.39-.19.17-.29.53-.67.35l-.09-1.31C.36,123.94.88,123.05.33,122.35Z"/><path class="cls-4" d="M728.2,130.34c-.55,0-.64.21-.7.74a12,12,0,0,1-1.16,4.35c-.35-1.86.72-5.19,1.86-5.82Z"/><path class="cls-6" d="M270.55,177c.06-.4.23-.74.67-.71,1.59.12,3.24-.44,4.78.34-.79.48-1.75-.13-2.54.37Z"/><path class="cls-9" d="M277.83,177c1.38-1.35,2.89-.79,4.4-.32a1.73,1.73,0,0,0,0,.32h-1.1a1.28,1.28,0,0,0-1.45,0Z"/><path class="cls-10" d="M670.7,176.55c1.37-.29,2.78-1,4,.4H671.4C671.23,176.7,670.84,176.85,670.7,176.55Z"/><path class="cls-11" d="M.77,121.24a.75.75,0,0,1-.74.36v-3.27c.25-.17.1-.56.39-.7C1.11,118.77.6,120,.77,121.24Z"/><path class="cls-12" d="M51,177c1.34-1.44,2.86-.72,4.35-.39-.53.48-1.27-.07-1.8.39Z"/><path class="cls-9" d="M663.4,176.22c1.2.14,2.46-.36,3.61.34,0,.23-.23.26-.34.39h-3.28A.49.49,0,0,1,663.4,176.22Z"/><path class="cls-13" d="M58.3,176.56a4.61,4.61,0,0,1,4,.07,1.66,1.66,0,0,0,0,.32H60.1c-.5-.39-1.09-.08-1.63-.22C58.42,176.67,58.36,176.62,58.3,176.56Z"/><path class="cls-12" d="M0,110a.67.67,0,0,1,.73.73c-.31,1,.73,2.25-.73,2.91v-1.45a1.33,1.33,0,0,0,0-1.46Z"/><path class="cls-14" d="M389.6,0c-.25.91-.77,1-2.2.33,0-.11,0-.22,0-.33Z"/><path class="cls-15" d="M666.67,177l.34-.39h3.69c.3,0,.58.06.7.4Z"/><path class="cls-16" d="M663.4,176.22c0,.24,0,.48,0,.73h-.73c-.44-.88-1.35-.39-2-.68l-.92-.09a.22.22,0,0,1-.09-.22c0-.08.06-.11.09-.11C661,176,662.23,175.57,663.4,176.22Z"/><path class="cls-17" d="M53.55,177c.48-.68,1.2-.27,1.8-.39H58.3l0,.06q.18.1.12.21t-.12.12Z"/><path class="cls-18" d="M502.11,176.58l1.84,0c.1.08.13.16.09.23s-.08.1-.12.1h-4.73c.5-.64,1.2-.27,1.81-.38A.79.79,0,0,1,502.11,176.58Z"/><path class="cls-9" d="M170.79,177v-.73c.81-.52,1.59-.81,2.16.31l-.34.42Z"/><path class="cls-1" d="M166.42,177a4.67,4.67,0,0,1,4,0Z"/><path class="cls-19" d="M.42,117.63c0,.29-.07.57-.39.7v-2.92C.69,116.06.25,116.89.42,117.63Z"/><path class="cls-15" d="M273.46,177c.76-.74,1.7-.22,2.54-.37l.37.37Z"/><path class="cls-1" d="M660.67,176.27c.71.1,1.67-.56,2,.68h-.36C662,176.2,661.11,176.73,660.67,176.27Z"/><path class="cls-20" d="M58.28,177a1.82,1.82,0,0,0,0-.33c.61.07,1.32-.34,1.82.33Z"/><path class="cls-21" d="M503.92,177c0-.11,0-.22,0-.33.6.09,1.29-.32,1.79.33Z"/><path class="cls-22" d="M279.65,177c.48-.49,1-.6,1.45,0Z"/><path class="cls-23" d="M0,110.68c.62.49.48,1,0,1.46Z"/><path class="cls-1" d="M502.11,176.58H501a42.23,42.23,0,0,0-8-.71,12.79,12.79,0,0,1-1.73-.22c-.63-.07-1.22-.51-1.89-.18a6.86,6.86,0,0,1-2.6-.68c-.25-.46-.69-.32-1.08-.34a44.67,44.67,0,0,1-15-7.2c-.71-.5-1.63-.76-2.11-1.58a1.76,1.76,0,0,0-1.26-1.06l-.56-.48c-.59-.58-.93-1.46-1.89-1.6a10.9,10.9,0,0,1-2.5-2.48c-.34-1.1-1.3-1.66-2.08-2.38a34.49,34.49,0,0,1-5.86-8,3.11,3.11,0,0,0-1.17-2.1,2.66,2.66,0,0,1-.73-1.42c-.31-.77-.2-1.74-1.08-2.23a48.47,48.47,0,0,1-4.32-12.82c.24-1.44-.52-2.76-.55-4.17a10,10,0,0,1-.21-1.81,61.88,61.88,0,0,1,0-18.48c-.11-.7.35-1.39.05-2.09a48.58,48.58,0,0,1,4.34-14.58,4,4,0,0,0,1.16-2.53A54.88,54.88,0,0,1,460.64,75a53.38,53.38,0,0,1,22.2-14.43,17.15,17.15,0,0,1,4.94-1.29,18.84,18.84,0,0,0,4.65-.83,5.71,5.71,0,0,0,1.49-.13,55.19,55.19,0,0,1,12.95-.93,49.41,49.41,0,0,1,10.21,1,9,9,0,0,0,2.92.37c.71,0,1.37.59,2.12.2a43.87,43.87,0,0,1,11.41,3.9c.12.56.7.49,1,.78l0,0a13.68,13.68,0,0,0,2.6,1.14l.31.33a2.57,2.57,0,0,0,1.8.82,26.18,26.18,0,0,1,5.12,3.68c.45.55.84,1.18,1.61,1.34,1.33,1.58,3.13,2.74,4.22,4.54a3.63,3.63,0,0,0,1.44,1.31,39.9,39.9,0,0,1,6.92,11.66,4.8,4.8,0,0,0,1.18,3.14,3.92,3.92,0,0,1,.63,2,1.5,1.5,0,0,0,.39,1.45,6.06,6.06,0,0,1,.68,2.56c-.48,1.41.26,2.66.47,4l0,0a37.31,37.31,0,0,1,.69,6.83c0,21.37-.06,42.74,0,64.1a2.71,2.71,0,0,1-.3,1.58,44.22,44.22,0,0,1-6.51.17c-3.32.11-6.64-.17-10,.15a4.21,4.21,0,0,1-3.64-3.24,4.74,4.74,0,0,0,.16-2.15q0-29.57,0-59.13a5.91,5.91,0,0,1,0-1.51c0,.19,0,.73,0,1.26q0,29.74,0,59.5c0,.58.2,1.21-.21,1.76a2.36,2.36,0,0,1-.26-1.58q0-31.31,0-62.6c.35-.65,0-1.33.11-1.66-.07-.58-.4-.32-.17-.36s.14,0,.16.09c.05.34.13.69-.19,1a43.32,43.32,0,0,0-2.52-9.14c-.05-.35.52-.64-.14-1.09s-.74-1.75-1.65-2.24c-1.71-2.32-3.26-4.76-5.47-6.65-.47-.45-.71-1.2-1.53-1.21A42.42,42.42,0,0,0,516.3,78.6c-1.28-.91-2.82-.83-4.26-1.13a2.93,2.93,0,0,0-2.07-.3,59.46,59.46,0,0,0-6.93-.35,7.68,7.68,0,0,0-2,.13,5.8,5.8,0,0,1-1.9.23c-1,.16-2,0-2.83.73l-7.6,2.2a3.24,3.24,0,0,0-1.82,1.11,42.42,42.42,0,0,0-10.33,8c-.54.47-1.18.85-1.33,1.63l-2.9,4.31c-1.43,1.23-1.79,3-2.47,4.66a23.76,23.76,0,0,1-1.51,4.42c-.63.31-.16,1-.43,1.38a10.68,10.68,0,0,1-.7,3.26c-.95,1-.46,2.26-.76,3.37a62.21,62.21,0,0,0,.16,11.58c.06.54,0,1.11.55,1.42a3.9,3.9,0,0,1,.41,2,14.57,14.57,0,0,0,1.11,4.5c.82.36.76,1.19,1,1.85a2.67,2.67,0,0,0,.47,1.8l0-.05c.57.69.55,1.76,1.44,2.24q2,3.07,4,6.15a34.2,34.2,0,0,0,4.93,5l6,3.76c.31.85,1.06.77,1.74.83,1.09.58,2.47.62,3.31,1.7,1.79.65,3.67,1,5.5,1.47l-.05,0c.69.54,1.52.07,2.25.32a36.15,36.15,0,0,0,14.12-.95,3.78,3.78,0,0,1,1.32-.88,38.9,38.9,0,0,0,10.56-5.9c3-2.28,6.65-1.11,7.73,2.4a121.24,121.24,0,0,0,0,13.07,1.78,1.78,0,0,1-1.29,1.86,2,2,0,0,0-.82,1.09,48.21,48.21,0,0,1-7,4.33c-.45-.11-.83-.07-1,.48a34.76,34.76,0,0,1-12.16,3.87,1.89,1.89,0,0,0-1.87-.3,29,29,0,0,1-5.89.34A1.12,1.12,0,0,0,502.11,176.58Z"/><path class="cls-1" d="M425.5,70.61c.74.23,1.1.9,1.59,1.41a8.27,8.27,0,0,0,2.15,2.26,22.58,22.58,0,0,1,3.64,5.1,1.29,1.29,0,0,0,.79,1.41,40.54,40.54,0,0,1,5.42,14.61,8.36,8.36,0,0,0,.08,2c.65,2.58.57,5.24.85,7.85q0,31.05,0,62.08a4.08,4.08,0,0,0,.16,2,3.39,3.39,0,0,1-1,2.62,2.38,2.38,0,0,0-1.44,1.42,3.54,3.54,0,0,1-2.61,1,70,70,0,0,0-10.54,0,5.53,5.53,0,0,1-5.08-4.72,4.24,4.24,0,0,0,.16-2q0-30.18,0-60.36c0-.64-.21-1.32.19-1.92-.68.08-.17.59-.17.79q-.06,30.74,0,61.46c0,.46.15,1-.24,1.38a4.88,4.88,0,0,1-.17-2.15c0-18.86-.14-37.73.06-56.59.09-8.66-1.69-16.56-7.14-23.44a5.75,5.75,0,0,0-2.67-2.71,26.75,26.75,0,0,0-10.9-6.07,27.47,27.47,0,0,0-19.91,2.17,30,30,0,0,0-11.21,10.55c-1,.34-.86,1.31-1.14,2.06A40.71,40.71,0,0,0,363.09,105c-.51.41-.24,1-.24,1.44q0,32.7,0,65.4c0,.61,0,1.21,0,1.82-.29,1-1.1.55-1.68.56-4,0-8,0-12,0a3.52,3.52,0,0,0-1.79.16A5.68,5.68,0,0,1,342.3,170c-.06-18.59,0-37.17,0-55.75,0-3.57-.15-7.14.17-10.7s.95-6.9,1.29-10.36a36.21,36.21,0,0,1,3.6-9.84c.55-.64,1.19-1.24,1.06-2.2A46.55,46.55,0,0,1,364,64.64,5.34,5.34,0,0,0,367,63a43.18,43.18,0,0,1,15-5.05c1.81.25,3.56-.3,5.35-.42a65.7,65.7,0,0,1,13.94.78,3.56,3.56,0,0,1,2.29.29.36.36,0,0,1-.43.18s.07.06.09,0c.71-.14,1.34.42,2.05.2a33.13,33.13,0,0,1,9.47,3.64c.6.85,1.63,1,2.47,1.44a20.69,20.69,0,0,1,5.92,4.11A19.58,19.58,0,0,0,425.5,70.61Z"/><path class="cls-1" d="M173,176.53c-.65-.58-1.44-.21-2.16-.31-2.85-.06-5.74.26-8.53-.6-.28-.08-.45.08-.6.28a5,5,0,0,1-3.26-1.5,1.77,1.77,0,0,0-1.27-1.06,11.79,11.79,0,0,1-3.41-4.62,68.18,68.18,0,0,1-3.64-9.26c0-.5.17-1.06-.48-1.33q-5.31-13.26-10.13-26.69a4.72,4.72,0,0,0-1.09-2.91l-5.95-15.6a9.24,9.24,0,0,0-1.12-3.43c-.39-.79-.27-1.81-1.07-2.42q-4.52-11.22-8.58-22.62c.06-.52.12-1-.48-1.31-2.54-6.3-5-12.63-7.19-19.07a2.09,2.09,0,0,0,0-1.81,3.09,3.09,0,0,1,2.52-2.56c5.7,0,11.4,0,17.1,0a.73.73,0,0,1,.75.34,5.4,5.4,0,0,0,1.53,1.7c2.23,5.82,4.48,11.63,6.7,17.45q3.1,8.16,6.14,16.33a4.3,4.3,0,0,1,.59,2.25,19.51,19.51,0,0,0,1.46,4.13c1.19,1.14,1.31,2.77,1.9,4.19s1.11,3,1.66,4.57c0,.51-.15,1,.48,1.31q4.5,11.79,9,23.58a25.94,25.94,0,0,0,2,4.69,3,3,0,0,0,3.4,1.37,3.49,3.49,0,0,0,3.05-2.37c2.25-6.21,4.6-12.38,6.92-18.57.21-.56.48-1.1.73-1.65a6.35,6.35,0,0,0,1.1-2.54,5.76,5.76,0,0,1,.95-3c.74-.83.86-2,1.4-2.89.1-1.14,1.05-2,.89-3.27a19.67,19.67,0,0,1,1.5-4,2.36,2.36,0,0,0,.69-1.82,1.5,1.5,0,0,1,.41-1.1,5.11,5.11,0,0,0,1-2.22,3.84,3.84,0,0,1,.74-2.52,2.68,2.68,0,0,0,.78-2.16q4.64-12.4,9.28-24.8c.85-.64.73-1.75,1.22-2.56a21.84,21.84,0,0,1,2.2-6.49c6.19,0,12.38,0,18.57,0a3.27,3.27,0,0,1,2.47,2.21c0,.84,0,1.67,0,2.5a83.49,83.49,0,0,1-3.21,8.4,4.29,4.29,0,0,0-1.1,2.91,17.92,17.92,0,0,1-1.42,3.73c-1.16,1.5-1.44,3.38-2.2,5.05a1.14,1.14,0,0,1-.07.33,4.54,4.54,0,0,0-.72,2.53C213,91.3,211.5,95.23,210,99.15c-.09.25-.38.42-.58.63a12.48,12.48,0,0,0-1.41,4c-1,3.39-2.32,6.65-3.58,9.94-2.82,7.37-5.68,14.72-8.52,22.09-.53.2-.49.61-.39,1-4.21,11-7.82,22.28-12.93,32.92A11.18,11.18,0,0,1,173,176.53Z"/><path class="cls-1" d="M579.63,8a3.68,3.68,0,0,1,2.58-1.06,67.7,67.7,0,0,0,10.17,0,6.25,6.25,0,0,1,5.07,4.71c.1,53.14,0,106.28,0,159.42a7,7,0,0,1-.21,2.88c-.59.45-1.28.21-1.92.23-4.26.12-8.52-.2-12.78.17a6.29,6.29,0,0,1-5.8-6.17,5.09,5.09,0,0,0,.15-2.16q0-74.94,0-149.88c0-1.13.37-2.29-.13-3.41a4.13,4.13,0,0,1,1.05-2.92A4.79,4.79,0,0,0,579.63,8Z"/><path class="cls-24" d="M597.11,174q0-80.13,0-160.26c0-.7-.27-1.47.31-2.09a6.23,6.23,0,0,1,.32,2.5q0,79.26,0,158.51c0,.55.3,1.19-.26,1.67A.76.76,0,0,1,597.11,174Z"/><path class="cls-25" d="M576.78,12.75a1.35,1.35,0,0,1,.55,1.27,34.83,34.83,0,0,0-.21,7.07q0,72.42,0,144.84c0,.76.3,1.59-.32,2.27,0-.61-.07-1.21-.07-1.82q0-75.81,0-151.63C576.7,14.08,576.75,13.42,576.78,12.75Z"/><path class="cls-26" d="M342.64,103q0,32.46,0,64.91c0,.69.28,1.46-.32,2.08a6.3,6.3,0,0,1-.3-2.69q0-29.88,0-59.76c0-1.75.19-3.5.29-5.25C342.9,102.33,342.88,102.63,342.64,103Z"/><path class="cls-27" d="M562.17,174c0-1.27,0-2.53,0-3.79,0-20.8,0-41.59,0-62.39,0-2.13-.64-4.19-.36-6.32a.45.45,0,0,1,.37.62c.29.63,0,1.35.27,2a3,3,0,0,1,.08,1.62c.38,1.26-.09,2.59.29,3.84v1.11a3.39,3.39,0,0,0-.15,1.61v58.3a3.11,3.11,0,0,0,.16,1.6c0,.5,0,1,0,1.48C562.69,173.9,562.58,174.26,562.17,174Z"/><path class="cls-28" d="M362.67,173.67V103.23c.53.65.21,1.24.42,1.74q0,34,0,68a5.87,5.87,0,0,1-.08.72C362.89,173.83,362.78,173.84,362.67,173.67Z"/><path class="cls-29" d="M116.89,174V105.58a.2.2,0,0,1,.34,0l.08.92a2.76,2.76,0,0,1,.12,1.07c0,22.07,0,44.14,0,66.21C117.33,174.08,117.15,174.15,116.89,174Z"/><path class="cls-1" d="M117.27,174q0-33.12,0-66.25c0-.42,0-.85.07-1.27a14.6,14.6,0,0,1,.28,4.32q0,31.08,0,62.14c0,.48.36,1.11-.33,1.45C117.07,174.29,117.06,174.16,117.27,174Z"/><path class="cls-30" d="M419.39,169c0-.72.11-1.44.11-2.17v-62h.32v1.77q0,30.55,0,61.12c0,.63.25,1.34-.33,1.89Z"/><path class="cls-31" d="M440.19,169.29c-.61-.6-.33-1.37-.33-2.07q0-31.18,0-62.36c-.18-.39,0-.42.33-.36,0,1,.13,1.93.13,2.9q0,30.13,0,60.27C440.31,168.21,440.23,168.75,440.19,169.29Z"/><path class="cls-32" d="M97.24,109.23q0,30.26,0,60.53a12.06,12.06,0,0,0,.36,3.22c-.69,0-.78-.41-.78-.95A3.51,3.51,0,0,1,96.7,171c0-20.49,0-41,0-61.47C96.79,109.2,97,109.11,97.24,109.23Z"/><path class="cls-33" d="M542.11,170.84c0-3.52.06-7,.06-10.55q0-25.65,0-51.29a2.73,2.73,0,0,1,.33-1.87v2.25q0,29.93,0,59.84c0,.64.26,1.35-.33,1.89A.23.23,0,0,1,542.11,170.84Z"/><path class="cls-1" d="M96.88,109.23v60.08c0,.91,0,1.82-.07,2.72a2,2,0,0,1-.29-1.38q0-31.08,0-62.15C97.2,108.5,97.1,108.84,96.88,109.23Z"/><path class="cls-34" d="M562.88,172.2c-.56-.55-.33-1.26-.33-1.9q0-28.85,0-57.71c0-.64-.23-1.34.32-1.9,0,1.46.07,2.91.07,4.36q0,27.58,0,55.16C562.94,170.87,562.9,171.54,562.88,172.2Z"/><path class="cls-35" d="M517.39,58.63c-3.64-.36-7.28-1-10.93-1a63.42,63.42,0,0,0-12.74,1c-.12-.09-.16-.17-.12-.26s.08-.14.12-.14c1.34-.81,2.87-.66,4.32-.79a66.5,66.5,0,0,1,15,.14c.64.33,1.36,0,2,.28a8.81,8.81,0,0,1,3.5.76A1,1,0,0,1,517.39,58.63Z"/><path class="cls-36" d="M220.67,59.71c-.41.53-1,.35-1.51.36l-16.64.14c-.31,0-.36-.25-.42-.48.2-.32.51-.26.81-.26,5.44,0,10.89,0,16.34,0A8.93,8.93,0,0,1,220.67,59.71Z"/><path class="cls-37" d="M681.59,58.62c-1.75.46-3.4-.35-5.1-.5a84.83,84.83,0,0,0-14.52,0c-1.33.11-2.66.76-4,.18.61,0,1-.69,1.68-.46.62-.3,1.33,0,1.94-.28l1.27-.08c1.13-.37,2.34.1,3.47-.29a47.14,47.14,0,0,1,10.21.36c.63.33,1.36,0,2,.29,1.38.56,2.94.07,4.31.71A1,1,0,0,1,681.59,58.62Z"/><path class="cls-38" d="M133.64,59.73c-.36.45-.87.34-1.34.34H117.86c-.47,0-1,.11-1.32-.36,2.93-.52,5.88-.21,8.82-.21C128.12,59.51,130.9,59.16,133.64,59.73Z"/><path class="cls-39" d="M401.25,58.27c-.62.73-1.26.07-1.84,0-2.61-.47-5.26-.4-7.88-.62a41.35,41.35,0,0,0-7.16.51c-.82.07-1.65.4-2.41-.22a52.9,52.9,0,0,1,17.44-.22A10.68,10.68,0,0,1,401.25,58.27Z"/><path class="cls-37" d="M65.94,77.17a7.45,7.45,0,0,1,3.5.64l-1.1.17a8.87,8.87,0,0,1-3.15-.48c-.75-.33-1.59,0-2.35-.27l-2.74-.09a2.56,2.56,0,0,0-1.81,0l-2.72.09c-.64.28-1.37,0-2,.28l-4.6.86c-.35-.14-1.09-.26-.25-.66a5.24,5.24,0,0,1,1.92-.17,1.33,1.33,0,0,1,.37-.34c2.27-.25,4.53-.53,6.81-.72,2.59-.21,5.15.61,7.76.35C65.8,76.82,65.83,77,65.94,77.17Z"/><path class="cls-40" d="M609.91,107.05c.61.68.38,1.52.3,2.25a65.16,65.16,0,0,0,.69,20c0,.18-.17.41-.27.62a6.73,6.73,0,0,1-.8-3.81c-.27-.64,0-1.36-.28-2l-.08-1.27c-.37-1.26.1-2.57-.28-3.83a18.63,18.63,0,0,1,0-4c.39-1.25-.08-2.57.29-3.82l.07-1.27c.38-.73-.06-1.55.3-2.28Z"/><path class="cls-4" d="M67,57.9c-6.07,0-12.14-.22-18.2.36-.11-.08-.15-.15-.11-.23s.07-.11.11-.11l.88-.07c.65-.28,1.38,0,2-.29A50.48,50.48,0,0,1,62.3,57.2c1.36.4,2.79-.09,4.16.28l.92.06C67.45,57.86,67.4,58.05,67,57.9Z"/><path class="cls-41" d="M446.76,106.31a58.77,58.77,0,0,0,0,19,.43.43,0,0,1-.66,0c0-.43-.06-.85-.1-1.28-.33-.88.08-1.84-.28-2.72a46,46,0,0,1,0-10.94c.36-.86-.07-1.8.27-2.66,0-.45.07-.89.11-1.34A.42.42,0,0,1,446.76,106.31Z"/><path class="cls-42" d="M218.46,102.62c.61,1.76-.18,3.44-.42,5.11a85.13,85.13,0,0,0-.63,13.15c.11.54.57,1.16-.36,1.45l-.06-1.62a38.81,38.81,0,0,1,0-7.31,4.36,4.36,0,0,1,.08-2c.33-.76,0-1.59.27-2.35A19,19,0,0,1,218.46,102.62Z"/><path class="cls-43" d="M511.93,77.17c1.48.41,3.26-.11,4.37,1.43l-5.83-1.11c-.65-.28-1.36,0-2-.26l-2.72-.09a3.65,3.65,0,0,0-2.17,0l-2.72.09a5,5,0,0,1-1.88.11.32.32,0,0,1-.14-.51l2.19,0c.55-.39,1.27.1,1.81-.34l7.65.36C511,76.69,511.45,77,511.93,77.17Z"/><path class="cls-44" d="M631.42,124.87c-.9-.79-.58-2-.64-2.87a42.66,42.66,0,0,1,.13-10.41c.19-1-.55-2.37.85-3.08a74.7,74.7,0,0,0-.65,8.19c0,.6-.05,1.2-.08,1.8.36,1.13-.1,2.33.28,3.46C631.66,122.92,631.29,123.91,631.42,124.87Z"/><path class="cls-45" d="M286.2,57.91a1.72,1.72,0,0,1-1.71.33A64.08,64.08,0,0,0,271,57.88c-.53,0-1.11.16-1.54-.32l.91-.08c1.25-.36,2.56.11,3.81-.28a21,21,0,0,1,4.75,0c1.23.39,2.53-.08,3.77.28l1,.09c.61.32,1.32,0,1.94.28Z"/><path class="cls-46" d="M117.27,174v.39c-5.94.07-11.89.2-17.83-.07.56-.54,1.26-.31,1.9-.31q7.77,0,15.55,0Z"/><path class="cls-47" d="M20.78,119.42c-.71-.84-.42-1.87-.32-2.76.35-3.22.16-6.54,1.49-9.6a25.63,25.63,0,0,1-.48,4.36c-.34.76,0,1.6-.28,2.36l-.08,5.28A.77.77,0,0,1,20.78,119.42Z"/><path class="cls-46" d="M562.17,174l.7-.34c.19.7-.21.82-.78.81l-16.28-.14c.56-.54,1.26-.31,1.89-.31Q554.94,174,562.17,174Z"/><path class="cls-48" d="M513.38,155.86c-1.58,1.07-3.48,1.18-5.25,1.35a76.36,76.36,0,0,1-8.15,0c-.26,0-.53-.22-.79-.33a.79.79,0,0,1,.36-.34l.38,0c.89.32,1.85-.07,2.73.27a9,9,0,0,1,2.88,0c.77-.32,1.61,0,2.38-.27C509.79,156.71,511.48,155.51,513.38,155.86Z"/><path class="cls-49" d="M342.64,103l-.34-.71,0-.75c.28-.64,0-1.35.26-2a18.55,18.55,0,0,1,1.15-6.38c.54.49.33,1.08.23,1.67-.41,2.43-1.23,4.82-.72,7.36C343.33,102.63,343,102.86,342.64,103Z"/><path class="cls-7" d="M467.14,125.24c-1.32-.95-1-2.45-1-3.7-.15-3.25-.05-6.51-.05-9.77.46-.07.52.23.54.57a10.19,10.19,0,0,1-.14,2.53c.12,3.07.23,6.14.37,9.2A5.47,5.47,0,0,0,467.14,125.24Z"/><path class="cls-50" d="M665.94,76.81c.54-.57,1.24-.33,1.88-.34a70.44,70.44,0,0,1,9.28.71c.48,0,.8.21.85.72a5.56,5.56,0,0,1-2.55-.39c-.76-.35-1.62,0-2.38-.3l-2.35-.06a5.81,5.81,0,0,0-2.9,0h-1.11C666.47,76.93,666.1,77.08,665.94,76.81Z"/><path class="cls-46" d="M362.67,173.67H363c.2.69-.17.83-.76.82l-14.87-.11c.54-.58,1.25-.33,1.88-.34,3.85,0,7.7,0,11.54,0C361.43,174,362.13,174.26,362.67,173.67Z"/><path class="cls-51" d="M87.74,164.56a1.15,1.15,0,0,1-.33-1V150.65a1.17,1.17,0,0,1,.32-1C87.91,154.62,87.88,159.59,87.74,164.56Z"/><path class="cls-46" d="M597.11,174l.38.33c-5,.24-10,.19-14.92,0,.55-.56,1.25-.32,1.89-.33C588.68,174,592.9,174,597.11,174Z"/><path class="cls-52" d="M335.34,124.16c.18-3.52.2-7,.7-10.55a47.89,47.89,0,0,1-.35,10.9C335.38,124.59,335.21,124.53,335.34,124.16Z"/><path class="cls-30" d="M533,164.55c-.56-.55-.32-1.26-.32-1.9q0-4.71,0-9.44c0-.58-.19-1.22.3-1.73A101.79,101.79,0,0,1,533,164.55Z"/><path class="cls-53" d="M217.05,122.33c.51-.39.29-1,.36-1.45.17,2.68,1.37,5.28.66,8a6.22,6.22,0,0,1-.71-3.83c-.33-.77,0-1.61-.28-2.37Z"/><path class="cls-54" d="M334.61,103c-1.49-1.13-1.17-3-1.68-4.5-.28-.81-1.4-1.7-.48-2.78A26.89,26.89,0,0,1,334.61,103Z"/><path class="cls-55" d="M675.05,156.93c-.6.6-1.36.34-2,.34-2.64,0-5.28,0-7.92,0-.58,0-1.22.18-1.7-.35.28-.24.61-.17.93-.19a12.89,12.89,0,0,1,2.91.15,14.62,14.62,0,0,1,3.62,0c1-.36,2.09.06,3.1-.28l.38,0C674.52,156.81,674.88,156.66,675.05,156.93Z"/><path class="cls-4" d="M96.88,109.23l-.33-.73c-.25-2.06-.49-4.13-.74-6.19,1.24.43.88,1.68,1,2.45.15,1.49.37,3,.47,4.47h-.36Z"/><path class="cls-7" d="M223.22,90.66c-.72,1.59-1.46,3.17-2.13,4.78-.2.46-.34.89-.9,1a24.55,24.55,0,0,1,2.61-6.26C223,90.25,223.08,90.5,223.22,90.66Z"/><path class="cls-56" d="M231.31,156.57a17.79,17.79,0,0,1,5.36,5.36A24.33,24.33,0,0,1,231.31,156.57Z"/><path class="cls-37" d="M440.18,104.5l-.33.36c-.81-1.91-.08-4-.7-6a9.89,9.89,0,0,0-.39-1.72c.41-.42-.06-1.07.38-1.48a4.2,4.2,0,0,1,.38,2.07c.3.63-.06,1.35.29,2l.07.93c.36,1-.09,2.08.29,3.08C440.17,104,440.17,104.25,440.18,104.5Z"/><path class="cls-57" d="M335.34,124.16l.35.35c-.62,1,0,2.13-.33,3.16-.22.66,0,1.47-.69,2-.45-.34-.94-.94-.59-1.32C335.19,127.09,334.68,125.45,335.34,124.16Z"/><path class="cls-46" d="M424.56,174.37c1.17-.69,2.45-.34,3.66-.3,2.29.07,4.62-.44,6.88.3A97.52,97.52,0,0,1,424.56,174.37Z"/><path class="cls-58" d="M683.47,155a9,9,0,0,1-4.32,1.51,4.39,4.39,0,0,0-1.92.44c-.19-.19-.55-.29-.36-.68a33.51,33.51,0,0,0,5.5-1.28C682.75,154.86,683.11,154.49,683.47,155Z"/><path class="cls-59" d="M592.38,7a31.55,31.55,0,0,1-10.17,0A61.67,61.67,0,0,1,592.38,7Z"/><path class="cls-60" d="M480.47,148.76a12.85,12.85,0,0,1-4.93-5A32.31,32.31,0,0,1,480.47,148.76Z"/><path class="cls-61" d="M321.42,77.18a15.88,15.88,0,0,1-5-5A22.33,22.33,0,0,1,321.42,77.18Z"/><path class="cls-62" d="M78.25,81.22a5.23,5.23,0,0,1,.68-.5c1.2,1.24,3.28,1.26,4.11,3C81.28,83.2,79.87,82,78.25,81.22Z"/><path class="cls-8" d="M469.83,99.81c0-1.92,1.14-3.36,2.08-4.88l.39.22Z"/><path class="cls-63" d="M712.82,76.08a13.64,13.64,0,0,1-4.64-4.64A19.84,19.84,0,0,1,712.82,76.08Z"/><path class="cls-64" d="M722.75,123.42l-6.2-.72a.32.32,0,0,1,0-.42c2.1,0,4.23-.23,6.18.84.12.06.16.13.12.2S722.79,123.42,722.75,123.42Z"/><path class="cls-65" d="M19.33,71.36a32.74,32.74,0,0,1-4.76,4.73A11.78,11.78,0,0,1,19.33,71.36Z"/><path class="cls-66" d="M223.22,90.66l-.42-.47a17.24,17.24,0,0,1,2.26-4.26c.42,1.24-.66,2-1,3A14.85,14.85,0,0,1,223.22,90.66Z"/><path class="cls-57" d="M54.64,157.28c-1.71-.44-3.67,0-5.09-1.44l4.73.75c.16.12.37.18.5.35A.3.3,0,0,1,54.64,157.28Z"/><path class="cls-37" d="M497.06,156.52a10.23,10.23,0,0,1-5.5-1.47A12.47,12.47,0,0,1,497.06,156.52Z"/><path class="cls-67" d="M215.22,84.51c.14-1.94,1.15-3.6,1.81-5.37.19-.51.28.16.39.32C216.77,81.18,216.44,83,215.22,84.51Z"/><path class="cls-68" d="M659.75,175.85v.33a9.47,9.47,0,0,1-4.72-1.11A9.34,9.34,0,0,1,659.75,175.85Z"/><path class="cls-69" d="M659,77.91a12,12,0,0,1,4.74-1.09.3.3,0,0,1,.13.25c0,.09,0,.14,0,.14-.24.21-.6.08-.83.31l-4,.74c-.13-.08-.17-.16-.12-.23S659,77.91,659,77.91Z"/><path class="cls-70" d="M54.64,157.28c0-.12,0-.23,0-.35a5.05,5.05,0,0,1,2.7-.06h2.94a6.9,6.9,0,0,1,2.22-.09.31.31,0,0,1,.14.5Z"/><path class="cls-4" d="M617.18,86.29c.14,1.88-1.27,3.14-1.84,4.73a1.15,1.15,0,0,1-.05-1.2A16.88,16.88,0,0,1,617.18,86.29Z"/><path class="cls-71" d="M44.86,58.87c-1.66.73-3.29,1.6-5.21,1.18C41.33,59.37,43,58.62,44.86,58.87Z"/><path class="cls-72" d="M683.42,79c1.11,1,3.2.6,3.64,2.55l-3.64-1.84A.47.47,0,0,1,683.42,79Z"/><path class="cls-7" d="M67,57.9l.36-.36a11,11,0,0,1,4.37.73A11,11,0,0,1,67,57.9Z"/><path class="cls-6" d="M628.44,72.81c-1.19,1.35-2.21,2.87-3.92,3.64C625.63,75,626.7,73.56,628.44,72.81Z"/><path class="cls-62" d="M537.42,93.21c1.42.71,2.33,2.4,1.79,3.33C538.61,95.43,538,94.32,537.42,93.21Z"/><path class="cls-53" d="M217,113.4v7.31A21.88,21.88,0,0,1,217,113.4Z"/><path class="cls-7" d="M446.76,127.07c.37,1.31,1.08,2.58.39,4a8.72,8.72,0,0,1-.74-4C446.53,126.89,446.65,126.89,446.76,127.07Z"/><path class="cls-73" d="M208,103.81c-.35-1.63.42-2.87,1.41-4A9.11,9.11,0,0,1,208,103.81Z"/><path class="cls-74" d="M468.66,131.78c-1.24-1.28-1.25-2.87-1.11-4.5A13.22,13.22,0,0,1,468.66,131.78Z"/><path class="cls-41" d="M48.84,155.78c-1.45.14-2.8,0-3.66-1.38C46.36,155,47.81,154.82,48.84,155.78Z"/><path class="cls-75" d="M113,88.07a4.29,4.29,0,0,1-1.92-4C112.05,85.27,112.21,86.83,113,88.07Z"/><path class="cls-76" d="M492.27,58.63a6.91,6.91,0,0,1-4.49.66c1.29-.69,2.79-.53,4.14-1A.72.72,0,0,1,492.27,58.63Z"/><path class="cls-77" d="M222.47,143.12a2.38,2.38,0,0,1,1.45,2.89A9.35,9.35,0,0,1,222.47,143.12Z"/><path class="cls-78" d="M681.59,58.62l1.23-.06a12.77,12.77,0,0,1,3.5.83C684.61,60,683.16,59,681.59,58.62Z"/><path class="cls-79" d="M367,63A3,3,0,0,1,364,64.64,12.43,12.43,0,0,1,367,63Z"/><path class="cls-80" d="M150.81,101.93a6.12,6.12,0,0,1-1.46-4.13A9.58,9.58,0,0,1,150.81,101.93Z"/><path class="cls-81" d="M662,127.85a3.14,3.14,0,0,1,3.24-1.54A10.18,10.18,0,0,1,662,127.85Z"/><path class="cls-81" d="M652.12,112.53a2.18,2.18,0,0,1-2.57,1.06,7.75,7.75,0,0,1,2.56-1.45c.12.08.17.17.13.25S652.16,112.53,652.12,112.53Z"/><path class="cls-76" d="M716.56,122.28v.42c-1.21-.29-2.49-.17-3.64-.73-.13-.07-.17-.15-.13-.23s.08-.12.12-.12l.38,0c.64.33,1.37,0,2,.3C715.76,121.89,716.27,121.71,716.56,122.28Z"/><path class="cls-82" d="M559.72,91.61a2.52,2.52,0,0,1-1.18-3.14A12.92,12.92,0,0,1,559.72,91.61Z"/><path class="cls-39" d="M615.29,89.82c0,.4,0,.8.05,1.2-.58.64-.38,1.86-1.53,2.07A13.4,13.4,0,0,1,615.29,89.82Z"/><path class="cls-4" d="M138.38,128.53c1,.73,1.63,1.6,1.09,2.91A9.23,9.23,0,0,1,138.38,128.53Z"/><path class="cls-83" d="M184.24,107.4c.77,1.32-.57,2.17-.72,3.28-.11.17-.22.18-.33,0C183,109.43,183.86,108.48,184.24,107.4Z"/><path class="cls-37" d="M131.48,109.58c.57,1,1.57,2,1,3.35a9,9,0,0,1-1-2.79A.45.45,0,0,1,131.48,109.58Z"/><path class="cls-84" d="M645,149.13a4.71,4.71,0,0,1-2.75-2.69C643.3,147.23,644.47,147.87,645,149.13Z"/><path class="cls-41" d="M655.4,131.5a5.16,5.16,0,0,1,3.32-1.85C657.91,130.8,656.59,131,655.4,131.5Z"/><path class="cls-85" d="M498.83,76.82v.37c.12.07.17.14.12.22s-.08.11-.12.11a9.61,9.61,0,0,1-2.55.39c.07-.41-.13-1.17.65-.89S498.2,76.84,498.83,76.82Z"/><path class="cls-34" d="M702.76,136.18a1.66,1.66,0,0,1-1.18,2.46A8.46,8.46,0,0,1,702.76,136.18Z"/><path class="cls-86" d="M640.1,120.51a2.79,2.79,0,0,1,0,2.91A3.6,3.6,0,0,1,640.1,120.51Z"/><path class="cls-66" d="M115.14,95c-.62-1.13-1.48-2.2-.82-3.61C114.53,92.61,115.42,93.68,115.14,95Z"/><path class="cls-4" d="M330,143.86c-.38-1.3.65-2.07,1.17-3a.31.31,0,0,1,.15.07c.05,0,.07.09.11.14A9.5,9.5,0,0,1,330,143.86Z"/><path class="cls-87" d="M71.05,154.76a4.66,4.66,0,0,1-3.46,1A13.69,13.69,0,0,1,71,154.4c.12.07.17.15.13.23S71.09,154.76,71.05,154.76Z"/><path class="cls-45" d="M218.84,75.73c-.54-1.31.14-2.16,1.1-2.91Z"/><path class="cls-88" d="M658.69,129.69a5.08,5.08,0,0,1,3.3-1.86C661.2,129,659.87,129.21,658.69,129.69Z"/><path class="cls-39" d="M328.05,147.81a3.21,3.21,0,0,1,1.59-3.24A11.91,11.91,0,0,1,328.05,147.81Z"/><path class="cls-89" d="M712.9,121.62c0,.12,0,.23,0,.35h-3.33A3.48,3.48,0,0,1,712.9,121.62Z"/><path class="cls-67" d="M183.19,110.68h.33c-.42,1-.4,2.28-1.57,2.88A5.91,5.91,0,0,1,183.19,110.68Z"/><path class="cls-66" d="M451.93,87.4c.48,1.24-.14,2-1.16,2.53A7.19,7.19,0,0,1,451.93,87.4Z"/><path class="cls-40" d="M131.48,109.58l-.07.56a10.53,10.53,0,0,1-1.17-3.06C131.69,107.4,131.12,108.72,131.48,109.58Z"/><path class="cls-90" d="M31.38,89a3.21,3.21,0,0,1,2.68-2.7Z"/><path class="cls-91" d="M409.47,84.14a3.2,3.2,0,0,1,2.67,2.71Z"/><path class="cls-40" d="M348.4,81.17c.82,1.3-.15,1.73-1.06,2.2A6.15,6.15,0,0,1,348.4,81.17Z"/><path class="cls-73" d="M453.28,147.53c1.16.27,1.36,1.08,1.17,2.1Z"/><path class="cls-92" d="M425.5,70.61a4.12,4.12,0,0,1-2.39-2.43C424.07,68.82,425.12,69.39,425.5,70.61Z"/><path class="cls-93" d="M561.89,101.57c-.53-1.29-1.22-2.55-.47-4C561.53,98.92,562,100.2,561.89,101.57Z"/><path class="cls-4" d="M199.9,66.22c0,1,0,2.09-1.22,2.56A3.71,3.71,0,0,1,199.9,66.22Z"/><path class="cls-94" d="M366.31,92.85c-.24-1-.11-1.86,1.14-2.06Z"/><path class="cls-16" d="M85.27,61.88A4.82,4.82,0,0,1,82,60.73C83.26,60.54,84.23,61.32,85.27,61.88Z"/><path class="cls-79" d="M627.85,160.93a2.75,2.75,0,0,1,2.4,2.09A7.64,7.64,0,0,1,627.85,160.93Z"/><path class="cls-4" d="M181,116.51a2.18,2.18,0,0,1-1.1,2.54A4.63,4.63,0,0,1,181,116.51Z"/><path class="cls-95" d="M451.47,143.88c.11-.16,0-.81.42-.29a3.11,3.11,0,0,1,.66,2.52A4.9,4.9,0,0,1,451.47,143.88Z"/><path class="cls-96" d="M71.05,154.76a2.17,2.17,0,0,1,0-.36l2.18-1.08a.6.6,0,0,1,.38.33A4,4,0,0,1,71.05,154.76Z"/><path class="cls-97" d="M117.24,105.59h-.34a4.23,4.23,0,0,1,0-3.63l.09.94c.28.62,0,1.33.26,2Z"/><path class="cls-98" d="M647.68,114.65c-.37,1-.79,1.24-2.12,1.16C646.28,115.44,646.82,114.75,647.68,114.65Z"/><path class="cls-99" d="M696.49,146.19a2.54,2.54,0,0,1-2.32,2.32Z"/><path class="cls-100" d="M429.24,74.28A2.93,2.93,0,0,1,427.09,72,5.88,5.88,0,0,1,429.24,74.28Z"/><path class="cls-66" d="M5.54,89.58a1.3,1.3,0,0,1-.84,2A4.68,4.68,0,0,1,5.54,89.58Z"/><path class="cls-101" d="M189.4,93.58c.41,1,.38,1.76-.78,2.16A5.56,5.56,0,0,1,189.4,93.58Z"/><path class="cls-102" d="M381.82,2.12a2,2,0,0,1-2.41,1.21A6.84,6.84,0,0,1,381.82,2.12Z"/><path class="cls-103" d="M579.63,8a2,2,0,0,1-1.8,1.83A4,4,0,0,1,579.63,8Z"/><path class="cls-104" d="M460.31,157.66a2.72,2.72,0,0,1,2.08,2.38A8.18,8.18,0,0,1,460.31,157.66Z"/><path class="cls-105" d="M676.91,119.81a1.6,1.6,0,0,1,2.13-1.16Z"/><path class="cls-75" d="M471.54,137.62c-1.4-.16-1.16-1.36-1.44-2.24C471,135.83,471.09,136.86,471.54,137.62Z"/><path class="cls-54" d="M517.39,58.63l1.15,0a4.91,4.91,0,0,1,3,.32,1,1,0,0,1-1.24.07C519.34,58.83,518.29,59.33,517.39,58.63Z"/><path class="cls-84" d="M635,136.53c-.52-.76-1.39-1.42-.78-2.53.37.84.74,1.69,1.12,2.53C635.21,136.71,635.1,136.71,635,136.53Z"/><path class="cls-106" d="M677.56,98.21c-.5.85-1.09,1.53-2.22,1C676,98.79,676.62,98.13,677.56,98.21Z"/><path class="cls-107" d="M20.78,119.42l.33-.36c0,.56.08,1.12.11,1.68l-.15,1.92h-.29Z"/><path class="cls-1" d="M66.46,57.48c-1.39-.06-2.81.38-4.16-.28A13.52,13.52,0,0,1,66.46,57.48Z"/><path class="cls-50" d="M466.42,112.14l-.36-.37c.79-.8-.25-2.32,1.13-2.9-.63,1-.09,2.21-.45,3.27C466.63,112.3,466.53,112.31,466.42,112.14Z"/><path class="cls-93" d="M669.67,123.83c.13-1.16.83-1.32,1.79-1C671,123.43,670.19,123.36,669.67,123.83Z"/><path class="cls-74" d="M218.11,129.61c.87.59,1.34,1.26.39,2.18A3.49,3.49,0,0,1,218.11,129.61Z"/><path class="cls-108" d="M73.59,153.65l-.38-.33c.76-.18,1.25-1.11,2.18-.76A2.27,2.27,0,0,1,73.59,153.65Z"/><path class="cls-109" d="M464.89,162.52c1.23-.18,1.54.73,1.89,1.6A5.31,5.31,0,0,1,464.89,162.52Z"/><path class="cls-4" d="M639.65,169.46c1-.51,1.55.06,1.89.94C640.72,170.47,640.28,169.78,639.65,169.46Z"/><path class="cls-110" d="M135.92,61.77a1.77,1.77,0,0,1-1.53-1.7A2.53,2.53,0,0,1,135.92,61.77Z"/><path class="cls-79" d="M687.42,153.64c-.72.14-1.28,1.17-2.17.41.6-.24,1-.82,1.76-.79C687.43,153.1,687.48,153.3,687.42,153.64Z"/><path class="cls-111" d="M214.43,87.37a2,2,0,0,1,.72-2.53A5.11,5.11,0,0,1,214.43,87.37Z"/><path class="cls-112" d="M232.28,76.29a2,2,0,0,1-1.76,2A6,6,0,0,1,232.28,76.29Z"/><path class="cls-1" d="M609.19,119.06c.67,1.23.19,2.55.28,3.83A11,11,0,0,1,609.19,119.06Z"/><path class="cls-39" d="M48.82,57.92v.34a4.19,4.19,0,0,1-3,.34C46.68,57.65,48,58.66,48.82,57.92Z"/><path class="cls-113" d="M187.88,98.26c0,.91.13,1.87-1,2.22A3.23,3.23,0,0,1,187.88,98.26Z"/><path class="cls-1" d="M609.47,111.22c-.09,1.27.39,2.59-.29,3.82A10.93,10.93,0,0,1,609.47,111.22Z"/><path class="cls-114" d="M417.19,64.07c-1-.12-2-.28-2.47-1.44C415.55,63.1,416.58,63.23,417.19,64.07Z"/><path class="cls-1" d="M282.7,57.48c-1.26-.06-2.56.38-3.77-.28A11.69,11.69,0,0,1,282.7,57.48Z"/><path class="cls-1" d="M274.18,57.2c-1.23.68-2.54.21-3.81.28A11.63,11.63,0,0,1,274.18,57.2Z"/><path class="cls-1" d="M562.86,109.58c-.67-1.23-.18-2.56-.29-3.84A10,10,0,0,1,562.86,109.58Z"/><path class="cls-115" d="M223.15,64.42a2.46,2.46,0,0,1,0-2.5A2.92,2.92,0,0,1,223.15,64.42Z"/><path class="cls-116" d="M611.73,135.08a1.38,1.38,0,0,1,.69,2.18A4.32,4.32,0,0,1,611.73,135.08Z"/><path class="cls-11" d="M437.71,173.33c0-1,.44-1.48,1.44-1.42A3,3,0,0,1,437.71,173.33Z"/><path class="cls-67" d="M664.12,156.92h-.74c-.72-.25-1.79.57-2.17-.72.9.65,2,0,2.91.39q.18.1.12.21C664.2,156.88,664.16,156.92,664.12,156.92Z"/><path class="cls-107" d="M676.87,156.24l.36.68h-2.18l-.73-.34C675.14,156.26,676.07,156.72,676.87,156.24Z"/><path class="cls-117" d="M488.25,153.35c-.92.44-1.56.28-1.74-.83Z"/><path class="cls-118" d="M635,136.53h.34l1.13,2.18C635.32,138.43,635.28,137.39,635,136.53Z"/><path class="cls-5" d="M643.74,86.2c.33-.81.54-1.78,1.79-1.43A6.53,6.53,0,0,1,643.74,86.2Z"/><path class="cls-119" d="M405.25,59c-.75.78-1.43-.21-2.15-.08-.05-.36.29-.24.44-.35Z"/><path class="cls-32" d="M695.85,63.32c-.91-.18-1.84-.32-2.23-1.34C694.43,62.31,695.39,62.41,695.85,63.32Z"/><path class="cls-1" d="M631.31,122c-.63-1.11-.23-2.3-.28-3.46A11.86,11.86,0,0,1,631.31,122Z"/><path class="cls-100" d="M237.79,71a2,2,0,0,1-2,1.75A6.65,6.65,0,0,1,237.79,71Z"/><path class="cls-120" d="M32,145.63a2,2,0,0,1-1.69-2A6.73,6.73,0,0,1,32,145.63Z"/><path class="cls-100" d="M537.12,64.79a3.17,3.17,0,0,1-2.6-1.14A3.86,3.86,0,0,1,537.12,64.79Z"/><path class="cls-121" d="M659,77.91v.35l-1.69.46C657.42,77.47,658.41,78.09,659,77.91Z"/><path class="cls-1" d="M666.3,57.2c-1.11.64-2.31.21-3.47.29A9.21,9.21,0,0,1,666.3,57.2Z"/><path class="cls-82" d="M486.86,81.22c.13-1.16,1-1,1.82-1.11A4.69,4.69,0,0,1,486.86,81.22Z"/><path class="cls-122" d="M314.61,163.38a2,2,0,0,1,2-1.69A5.76,5.76,0,0,1,314.61,163.38Z"/><path class="cls-105" d="M31.7,63c-.45.92-1.07,1.48-2.17,1.06A6.74,6.74,0,0,1,31.7,63Z"/><path class="cls-93" d="M62.65,157.28v-.35q-.19-.1-.12-.21c0-.07.08-.1.13-.1.81-.36,1.75.11,2.55-.38q.18.1.12.21a.17.17,0,0,1-.13.1C64.49,157.29,63.39,156.64,62.65,157.28Z"/><path class="cls-123" d="M35,148.55a2.12,2.12,0,0,1-1.84-1.74A4.24,4.24,0,0,1,35,148.55Z"/><path class="cls-1" d="M440.17,103.76c-.65-1-.22-2.05-.29-3.08A7.47,7.47,0,0,1,440.17,103.76Z"/><path class="cls-124" d="M186.43,101.58a1.17,1.17,0,0,1-.69,1.82C185.6,102.65,186.21,102.19,186.43,101.58Z"/><path class="cls-125" d="M446.76,106.31h-.66c-.25-.67.16-1.22.33-1.8C447,105,446.68,105.7,446.76,106.31Z"/><path class="cls-81" d="M687.42,153.64l-.41-.38c.36-.5,1-.49,1.46-.73C688.8,153.54,687.74,153.24,687.42,153.64Z"/><path class="cls-126" d="M85.6,167.4a2.24,2.24,0,0,1,1.59-1.71C87.1,166.66,86.41,167.08,85.6,167.4Z"/><path class="cls-117" d="M617.11,147.54c1.11,0,1.16.54.81,1.36Z"/><path class="cls-127" d="M656.8,109.57c-.08,1.3-1.1,1-1.87,1.09A5,5,0,0,1,656.8,109.57Z"/><path class="cls-128" d="M652.12,112.53v-.39l1.4-.76C653.64,112.48,652.67,112.25,652.12,112.53Z"/><path class="cls-129" d="M321.68,156.64c-.44-1.17.51-1.25,1.21-1.53A3.63,3.63,0,0,1,321.68,156.64Z"/><path class="cls-130" d="M643.7,116.86c.07,1.07-.84.88-1.43,1.1-.13.16-.26.16-.39,0A4.42,4.42,0,0,1,643.7,116.86Z"/><path class="cls-13" d="M446.76,127.07h-.35a2.77,2.77,0,0,1-.32-1.81h.66C446.76,125.86,446.76,126.46,446.76,127.07Z"/><path class="cls-90" d="M218.82,132.93c.85.48.89.62.45,1.76Z"/><path class="cls-27" d="M489.37,175.46a1.24,1.24,0,0,1,1.81,0c.13.07.17.15.13.22s-.08.11-.12.11A2.53,2.53,0,0,1,489.37,175.46Z"/><path class="cls-131" d="M376.45,5.44c.06,1.13-.67,1.37-1.58,1.43A4.51,4.51,0,0,1,376.45,5.44Z"/><path class="cls-132" d="M491.19,175.82c0-.11,0-.22,0-.33.61.08,1.31-.24,1.81.37a2.81,2.81,0,0,0,0,.29A2.6,2.6,0,0,1,491.19,175.82Z"/><path class="cls-6" d="M267.28,176.16a2.86,2.86,0,0,1,2.55,0l-1.57.14Z"/><path class="cls-133" d="M265.09,58.63a1.71,1.71,0,0,1-2.18,0l1.82-.35A.74.74,0,0,1,265.09,58.63Z"/><path class="cls-92" d="M698,64.12c-1,.44-1.54-.3-2.17-.83A3.15,3.15,0,0,1,698,64.12Z"/><path class="cls-134" d="M101.05,71.69A2.22,2.22,0,0,1,99.43,70C100.16,70.38,100.91,70.74,101.05,71.69Z"/><path class="cls-135" d="M105.89,76.45a2.2,2.2,0,0,1-1.71-1.66A2.62,2.62,0,0,1,105.89,76.45Z"/><path class="cls-1" d="M57.35,156.87l-2.7.06-.37-.34A10.56,10.56,0,0,1,57.35,156.87Z"/><path class="cls-36" d="M663.8,77.16a1.86,1.86,0,0,1,0-.34h2.18l.72.35-1.36.07A1.62,1.62,0,0,1,663.8,77.16Z"/><path class="cls-1" d="M664.12,156.92v-.32a9.56,9.56,0,0,1,3.1.29Z"/><path class="cls-1" d="M673.94,156.61c-1,.63-2.07.2-3.1.28A9.5,9.5,0,0,1,673.94,156.61Z"/><path class="cls-1" d="M667.77,77.15a2.89,2.89,0,0,1,2.9,0Z"/><path class="cls-117" d="M683.42,79v.71L681.61,79C682.23,78.25,682.81,79.09,683.42,79Z"/><path class="cls-136" d="M82,147.48c-.31.69-.34,1.7-1.56,1.27Z"/><path class="cls-105" d="M530.42,85.35c1.16-.42,1.25.51,1.53,1.21A4.31,4.31,0,0,1,530.42,85.35Z"/><path class="cls-103" d="M679.72,96.82c-.05,1-.54,1.22-1.4.77C678.78,97.31,679.08,96.75,679.72,96.82Z"/><path class="cls-137" d="M632.39,105.57c-.61-.78-.32-1.34.42-1.81Z"/><path class="cls-107" d="M335.41,107.29l-.14,1.58c-.27-.75-.53-1.49.05-2.18Z"/><path class="cls-12" d="M485.69,174.44c.48-.69,1.05-.15,1.41.05s-.22.17-.33.29A1.51,1.51,0,0,1,485.69,174.44Z"/><path class="cls-90" d="M644.8,132.57c.82-.1,1.17.26,1.06,1.08A1.94,1.94,0,0,1,644.8,132.57Z"/><path class="cls-33" d="M541.73,105.68l.18-1.21c.22.75.5,1.51-.09,2.19Z"/><path class="cls-138" d="M154.85,112c-.88-.17-1-.61-.48-1.31Z"/><path class="cls-1" d="M466.42,112.14h.32a7.42,7.42,0,0,1-.28,2.73C466.45,114,466.43,113.05,466.42,112.14Z"/><path class="cls-84" d="M470.12,135.43c-.51-.51-1.13-1-.47-1.8A2.56,2.56,0,0,1,470.12,135.43Z"/><path class="cls-118" d="M195.53,136.89c-.65-.53-.26-1.07.1-1.45.19-.2.22.23.29.4Z"/><path class="cls-1" d="M446,107.65c0,.89.34,1.83-.27,2.66A6.31,6.31,0,0,1,446,107.65Z"/><path class="cls-139" d="M255.59,60.79c.17.07.6.1.39.29-.39.36-.92.75-1.45.1Z"/><path class="cls-44" d="M499.55,156.59l-.36.34c-.73-.15-1.58.34-2.18-.44C497.85,156.66,498.72,156.22,499.55,156.59Z"/><path class="cls-135" d="M475.2,90.84a1.44,1.44,0,0,1,1.33-1.63A4.23,4.23,0,0,1,475.2,90.84Z"/><path class="cls-110" d="M641.88,118h.39c-.44.43-.51,1.35-1.47,1.07A2.07,2.07,0,0,1,641.88,118Z"/><path class="cls-1" d="M502.66,156.89c-.91-.08-1.87.33-2.73-.27A7.39,7.39,0,0,1,502.66,156.89Z"/><path class="cls-140" d="M85.43,85.6A1.44,1.44,0,0,1,87,86.94,4.28,4.28,0,0,1,85.43,85.6Z"/><path class="cls-141" d="M121.18,83.15c1,.14,1,.63.48,1.31Z"/><path class="cls-142" d="M82,60.78c-.59-.05-1.33.21-1.48-.72C81.09,60.13,81.72,60.1,82,60.78Z"/><path class="cls-92" d="M433.67,80.79c-1,0-1.13-.6-.79-1.41C433.15,79.85,433.41,80.32,433.67,80.79Z"/><path class="cls-143" d="M292.75,59.35c-.82.73-1.3.11-1.8-.46A3.65,3.65,0,0,1,292.75,59.35Z"/><path class="cls-144" d="M65.2,156.55v-.31c.65-.09,1.27-.75,2-.09A3.33,3.33,0,0,1,65.2,156.55Z"/><path class="cls-145" d="M551.62,76.81c-1,.17-1.16-.65-1.44-1.3C550.93,75.64,551.27,76.24,551.62,76.81Z"/><path class="cls-1" d="M445.71,121.25c.63.85.23,1.81.28,2.72A6.28,6.28,0,0,1,445.71,121.25Z"/><path class="cls-146" d="M149.6,158.13c1,.15.92.67.48,1.33Z"/><path class="cls-100" d="M631,70.32a1.47,1.47,0,0,1-1.63,1.36A4.66,4.66,0,0,1,631,70.32Z"/><path class="cls-147" d="M546,71a1.44,1.44,0,0,1-1.61-1.34A3.62,3.62,0,0,1,546,71Z"/><path class="cls-148" d="M539.23,65.94c-1,.5-1.37-.17-1.8-.82A4.05,4.05,0,0,1,539.23,65.94Z"/><path class="cls-33" d="M306.22,64.84c-.86.45-1.31.15-1.45-.76Z"/><path class="cls-1" d="M21.19,113.78c0-.79-.32-1.63.28-2.36A5.56,5.56,0,0,1,21.19,113.78Z"/><path class="cls-1" d="M609.84,107.67c0,.77.3,1.58-.3,2.28A4.92,4.92,0,0,1,609.84,107.67Z"/><path class="cls-1" d="M217.34,109.05c0,.79.32,1.62-.27,2.35A4.94,4.94,0,0,1,217.34,109.05Z"/><path class="cls-137" d="M467.89,105.61c-.13-.54-.48-1.16.43-1.38A2.35,2.35,0,0,1,467.89,105.61Z"/><path class="cls-1" d="M62.66,156.62c0,.1,0,.21,0,.31l-2.36-.06A6,6,0,0,1,62.66,156.62Z"/><path class="cls-1" d="M673,77.21c.8.09,1.65-.31,2.38.3A5.67,5.67,0,0,1,673,77.21Z"/><path class="cls-98" d="M560.74,95c-.61-.35-1.08-.74-.39-1.45A2.66,2.66,0,0,1,560.74,95Z"/><path class="cls-1" d="M507.92,156.62c-.74.57-1.58.2-2.38.27A5.65,5.65,0,0,1,507.92,156.62Z"/><path class="cls-1" d="M62.84,77.23c.79,0,1.63-.32,2.35.27A6,6,0,0,1,62.84,77.23Z"/><path class="cls-1" d="M217.08,122.71c.59.73.2,1.57.28,2.37A4.8,4.8,0,0,1,217.08,122.71Z"/><path class="cls-1" d="M503.57,77.13a1.79,1.79,0,0,1,2.17,0Z"/><path class="cls-149" d="M467.34,164.6c.68.05,1.42,0,1.26,1.06A3.15,3.15,0,0,1,467.34,164.6Z"/><path class="cls-143" d="M157.13,173.34c.67,0,1.43,0,1.27,1.06A2.91,2.91,0,0,1,157.13,173.34Z"/><path class="cls-1" d="M663.8,77.16l1.5.07a5.31,5.31,0,0,1-2.27.29Z"/><path class="cls-46" d="M530.91,167.5c-.29-.79.35-.88.82-1.09C531.8,167,531.39,167.29,530.91,167.5Z"/><path class="cls-1" d="M562.49,104.12c-.55-.59-.25-1.31-.27-2A3.94,3.94,0,0,1,562.49,104.12Z"/><path class="cls-1" d="M342.59,99.59c0,.67.27,1.38-.26,2A4,4,0,0,1,342.59,99.59Z"/><path class="cls-148" d="M439.14,95.71c-.14.49.15,1.09-.38,1.48.08-.6-.25-1.28.33-1.79A.29.29,0,0,1,439.14,95.71Z"/><path class="cls-90" d="M523,172.31c-.21-.15-.33-.32,0-.48s.66-.51,1,0Z"/><path class="cls-150" d="M110,82.21c-.15.27-.35.29-.54.06a.43.43,0,0,1,.14-.72Z"/><path class="cls-151" d="M705,69.15c-.48-.2-1.09-.3-.85-1.07C704.65,68.28,705.06,68.54,705,69.15Z"/><path class="cls-1" d="M439.81,99.75c-.57-.58-.27-1.3-.29-2A3.8,3.8,0,0,1,439.81,99.75Z"/><path class="cls-152" d="M673.64,121.63c-.31-.8.31-.67.74-.73A.78.78,0,0,1,673.64,121.63Z"/><path class="cls-1" d="M508.46,77.23c.68,0,1.4-.28,2,.26A3.84,3.84,0,0,1,508.46,77.23Z"/><path class="cls-1" d="M498.83,77.52v-.33l2,0A4.1,4.1,0,0,1,498.83,77.52Z"/><path class="cls-1" d="M715.3,121.94c-.68-.06-1.42.28-2-.3A3.51,3.51,0,0,1,715.3,121.94Z"/><path class="cls-33" d="M650.66,134c.39-.42.74-1,1.44-.44A1.94,1.94,0,0,1,650.66,134Z"/><path class="cls-1" d="M53.56,77.5c.61-.55,1.33-.24,2-.28A4.06,4.06,0,0,1,53.56,77.5Z"/><path class="cls-103" d="M265.11,175.79c.45-.47,1-.27,1.49-.06l-.85.15Z"/><path class="cls-153" d="M287,175.91l-1.07-.22c.75-.25,1.24-.35,1.68.13Z"/><path class="cls-154" d="M722.75,123.42c0-.1,0-.2,0-.3.6-.06,1.2-.34,1.8,0C724,123.65,723.35,123.34,722.75,123.42Z"/><path class="cls-1" d="M609.55,124.16c.56.6.26,1.33.28,2A3.62,3.62,0,0,1,609.55,124.16Z"/><path class="cls-155" d="M534.56,63.69c-.46-.11-1.19.15-1-.78C534,63,534.43,63.14,534.56,63.69Z"/><path class="cls-156" d="M647,134.31c.44-.45.93-.42,1.67-.07l-1.39.14h-.15Z"/><path class="cls-144" d="M631.77,125.52c-.07.27-.13.55-.19.82h-.2v-1.5C631.74,124.93,631.82,125.19,631.77,125.52Z"/><path class="cls-1" d="M.72,107.22c-.06.68.34,1.44-.38,2C.5,108.55.33,107.83.72,107.22Z"/><path class="cls-54" d="M520.3,59l1.24-.07.58.09A1.27,1.27,0,0,1,520.3,59Z"/><path class="cls-1" d="M58.29,77.13a1.34,1.34,0,0,1,1.81,0Z"/><path class="cls-33" d="M492.27,58.63l-.35-.34,1.8-.08v.4Z"/><path class="cls-157" d="M114,62.27a1.26,1.26,0,0,1,0,1.81A2.56,2.56,0,0,1,114,62.27Z"/><path class="cls-158" d="M265.09,58.63l-.36-.34a.3.3,0,0,1,.31-.06l1.22.13C265.88,58.76,265.46,58.56,265.09,58.63Z"/><path class="cls-1" d="M678.51,57.85c-.68,0-1.4.28-2-.29A3.54,3.54,0,0,1,678.51,57.85Z"/><path class="cls-1" d="M661.56,57.57c-.58.54-1.28.26-1.94.28A3.51,3.51,0,0,1,661.56,57.57Z"/><path class="cls-1" d="M515,57.84c-.68,0-1.4.29-2-.28A3.47,3.47,0,0,1,515,57.84Z"/><path class="cls-1" d="M285.6,57.85c-.66,0-1.36.26-1.94-.28A3.41,3.41,0,0,1,285.6,57.85Z"/><path class="cls-1" d="M51.73,57.56c-.61.58-1.34.25-2,.29A3.38,3.38,0,0,1,51.73,57.56Z"/><path class="cls-1" d="M117.21,104.85c-.53-.6-.26-1.3-.26-2A3.46,3.46,0,0,1,117.21,104.85Z"/><path class="cls-112" d="M715.36,156.2a7.78,7.78,0,0,1-2.05,2.37A2.71,2.71,0,0,1,715.36,156.2Z"/><path class="cls-101" d="M693.25,172.21l-2.09.78C691.58,172,692.22,171.6,693.25,172.21Z"/><path class="cls-123" d="M699.88,169a4.11,4.11,0,0,1-2.2,1.09.27.27,0,0,1-.45-.05A3.72,3.72,0,0,1,699.88,169Z"/><path class="cls-127" d="M710.89,161a5.73,5.73,0,0,1-2,1.71A2,2,0,0,1,710.89,161Z"/><path class="cls-90" d="M708.37,163.14a3.2,3.2,0,0,1-1.27,1.07C706.91,163.13,707.7,163.21,708.37,163.14Z"/><path class="cls-11" d="M697.23,170l.45.05a1.91,1.91,0,0,1-1.88.74A2,2,0,0,1,697.23,170Z"/><path class="cls-68" d="M8.06,147.81a20.84,20.84,0,0,1-2.28-4.7c.18,0,.5-.05.52,0C6.81,144.71,8.2,146,8.06,147.81Z"/><path class="cls-159" d="M16.38,159.31a8,8,0,0,1-2.06-2.38A2.7,2.7,0,0,1,16.38,159.31Z"/><path class="cls-57" d="M51,77.19l-.37.34a2.85,2.85,0,0,0-.08-.51c-.17-.5,0-.84.53-.81.25,0,.49.26.73.4Z"/><path class="cls-12" d="M.81,126l.67-.35c-.1.71.28,1.5-.31,2.15C1,127.19.59,126.64.81,126Z"/><path class="cls-160" d="M4.41,139.81l-.47-1.32C4.83,138.67,5,139.1,4.41,139.81Z"/><path class="cls-33" d="M3,135.44,2.56,134C3.3,134.32,3.56,134.76,3,135.44Z"/><path class="cls-161" d="M48.73,176.27l-.63-.07c.68-.62,1.43-.3,2.17-.08Z"/><path class="cls-112" d="M21.87,164.48a3.61,3.61,0,0,1-1.61-1.33A1.44,1.44,0,0,1,21.87,164.48Z"/><path class="cls-101" d="M37.06,173.37l-1.33-.49C36.38,172.46,36.91,172.41,37.06,173.37Z"/><path class="cls-94" d="M65.94,77.17l-.37-.35-.15-.5c.14,0,.32-.1.42,0C66.28,76.51,66.06,76.85,65.94,77.17Z"/><path class="cls-3" d="M249.45,88.16l.75-.76a3.69,3.69,0,0,1,2-1.8c1.69-1.44,3.83-2.27,5.3-4,1.57-.64,3-1.69,4.71-1.91A4.11,4.11,0,0,0,264,79a13.21,13.21,0,0,1,6.08-1.75c1.71-.21,3.44-.39,5.18-.45h2.49c.82-.08,1.61.2,2.43.2a10.12,10.12,0,0,0,2.05.21c.84.25,1.8,0,2.52.69l6.93,2.14a5.86,5.86,0,0,1,3.22,1.52,49.62,49.62,0,0,1,7.9,5.84A1.61,1.61,0,0,1,304,88.67l4.4,6A6.39,6.39,0,0,1,310.2,98l1.51,3.57a5.42,5.42,0,0,1,1,3,3.11,3.11,0,0,0,.42,1.79c.78,1.61.65,3.41,1.11,5.08a15.11,15.11,0,0,0,.18,3.15c-.06,3,.27,6.12-.59,9.12a48.53,48.53,0,0,1-3.76,12.47,35.75,35.75,0,0,1-14.79,16c-.4.38-.74.88-1.41.76-1.14.53-2.48.7-3.29,1.83a9.39,9.39,0,0,1-2.17.37c-1.45.41-3,.42-4.33,1.32a17.48,17.48,0,0,1-3.07.45,11.7,11.7,0,0,0-2.64.19c-1.1-.12-2.24.29-3.31-.24a43.18,43.18,0,0,1-14.24-3.22,42.37,42.37,0,0,1-9.36-5.85,5.56,5.56,0,0,1-2.39-2.19c-1-1-1.41-2.56-2.79-3.27-.78-1-1.83-1.84-2-3.23l-3.18-7a1.3,1.3,0,0,1-.42-1.36c-.35-1.37-.7-2.73-1-4.1-.29-.17-.24-.39-.09-.63a66.86,66.86,0,0,1-.74-11.66,1.88,1.88,0,0,1-.13-2,5.73,5.73,0,0,0,.11-2.06c.5-1-.09-2.25.87-3.08a44.6,44.6,0,0,1,6-14.17c.62-.93,1.28-1.84,1.92-2.75A3.62,3.62,0,0,1,249.45,88.16Z"/><path class="cls-94" d="M280.17,77.21a6,6,0,0,1-2.35-.06,4.48,4.48,0,0,0-2.54,0A56.17,56.17,0,0,0,264,79c1-1.53,2.85-1.72,4.22-1.88,3.8-.45,7.64-1.13,11.5-.4a17.15,17.15,0,0,0,3.58.23c.77,0,1.3.12,1.45,1a6,6,0,0,1-2.55-.4C281.55,77.18,280.81,77.52,280.17,77.21Z"/><path class="cls-25" d="M313.81,123.67q.18-4.61.38-9.19a8.74,8.74,0,0,1-.1-2.55.32.32,0,0,1,.51-.15c-.12,4.36.36,8.75-.56,13.45Z"/><path class="cls-162" d="M239.67,107.17l-.48,3.16c-.31.64,0,1.37-.3,2l-.07,2h-.32c-.12.19-.24.19-.35,0a.69.69,0,0,1-.34-.78,33,33,0,0,0,1.08-6.16C239,106.75,239.25,106.63,239.67,107.17Z"/><path class="cls-163" d="M275,156.85l3.32,0a9.3,9.3,0,0,1,2.58-.11c.24.12.3.29.16.51H272V157Z"/><path class="cls-37" d="M314.6,111.78h-.36a.87.87,0,0,1-.34-.37,23.67,23.67,0,0,1-.79-5.09c1.14.43.7,1.54.95,2.32A20.39,20.39,0,0,1,314.6,111.78Z"/><path class="cls-141" d="M262.16,79.7c-1.58.61-3,1.71-4.71,1.91C258.92,80.71,260.18,79.33,262.16,79.7Z"/><path class="cls-78" d="M294.89,81.58l-3.22-1.52A2.59,2.59,0,0,1,294.89,81.58Z"/><path class="cls-88" d="M310.2,98l-1.79-3.35A2.92,2.92,0,0,1,310.2,98Z"/><path class="cls-37" d="M244.29,139.09a14.63,14.63,0,0,1,2,3.23c-1.23-.46-1.53-1.79-2.42-2.59C243.63,139.54,244,139.23,244.29,139.09Z"/><path class="cls-164" d="M238.15,114.32h.35v5.38h-.35Z"/><path class="cls-52" d="M312.69,104.53a8.93,8.93,0,0,1-1-3A2.28,2.28,0,0,1,312.69,104.53Z"/><path class="cls-32" d="M249.45,88.16l-1.86,2.09C247.49,88.91,248.28,88.36,249.45,88.16Z"/><path class="cls-94" d="M281.1,157.28v-.36c-.12-.07-.17-.14-.12-.21s.08-.11.12-.11l3-.15C283.29,157.47,282,156.71,281.1,157.28Z"/><path class="cls-148" d="M249.05,145.59a9.24,9.24,0,0,1,2.39,2.19A2.7,2.7,0,0,1,249.05,145.59Z"/><path class="cls-165" d="M252.15,85.6l-2,1.8C250.28,86.19,251.06,85.73,252.15,85.6Z"/><path class="cls-166" d="M293.85,152.93l1.41-.76C295.2,153,294.77,153.21,293.85,152.93Z"/><path class="cls-167" d="M288.39,155.13a2.81,2.81,0,0,1,2.17-.37C289.88,155.13,289.25,155.78,288.39,155.13Z"/><path class="cls-103" d="M240.69,130.71l.42,1.36C240.33,131.89,240.25,131.62,240.69,130.71Z"/><path class="cls-119" d="M304,88.67c-.41-.42-.81-.84-1.22-1.25C303.66,87.38,304.05,87.82,304,88.67Z"/><path class="cls-101" d="M239.56,126l.09.63-.18,1.18C239.19,126.93,239.07,126.44,239.56,126Z"/><path class="cls-1" d="M.33,122.35c.79.66.29,1.54.39,2.32Z"/><path class="cls-85" d="M502.83,76.46c-.51.6-1.2.28-1.81.34C501.53,76.22,502.22,76.54,502.83,76.46Z"/><path class="cls-85" d="M511.93,77.17a2.25,2.25,0,0,1-1.45-.35C511.14,76.21,511.5,76.82,511.93,77.17Z"/><path class="cls-1" d="M313.9,111.41l.34.37c0,.9,0,1.8-.05,2.69A10.86,10.86,0,0,1,313.9,111.41Z"/><path class="cls-1" d="M275.28,77.15a2.28,2.28,0,0,1,2.54,0Z"/><path class="cls-1" d="M281.1,156.6v.32l-2.74,0A7.69,7.69,0,0,1,281.1,156.6Z"/><path class="cls-1" d="M238.89,112.34c.08-.67-.26-1.41.3-2A3.65,3.65,0,0,1,238.89,112.34Z"/><path class="cls-1" d="M280.17,77.21c.68.07,1.42-.28,2,.31A3.78,3.78,0,0,1,280.17,77.21Z"/><path class="cls-2" d="M746.63,10a3.68,3.68,0,0,1,2.58-1.06,67.7,67.7,0,0,0,10.17,0,6.25,6.25,0,0,1,5.07,4.71c.1,53.14,0,106.28,0,159.42a7,7,0,0,1-.21,2.88c-.59.45-1.28.21-1.92.23-4.26.12-8.52-.2-12.78.17a6.29,6.29,0,0,1-5.8-6.17,5.09,5.09,0,0,0,.15-2.16q0-74.94,0-149.88c0-1.13.37-2.29-.13-3.41a4.13,4.13,0,0,1,1.05-2.92A4.79,4.79,0,0,0,746.63,10Z"/><path class="cls-2" d="M827.5,72.61c.74.23,1.1.9,1.59,1.41a8.27,8.27,0,0,0,2.15,2.26,22.58,22.58,0,0,1,3.64,5.1,1.29,1.29,0,0,0,.79,1.41,40.54,40.54,0,0,1,5.42,14.61,8.36,8.36,0,0,0,.08,2c.65,2.58.57,5.24.85,7.85q0,31.05,0,62.08a4.08,4.08,0,0,0,.16,2,3.39,3.39,0,0,1-1,2.62,2.38,2.38,0,0,0-1.44,1.42,3.54,3.54,0,0,1-2.61,1,70,70,0,0,0-10.54,0,5.53,5.53,0,0,1-5.08-4.72,4.24,4.24,0,0,0,.16-2q0-30.18,0-60.36c0-.64-.21-1.32.19-1.92-.68.08-.17.59-.17.79q-.06,30.74,0,61.46c0,.46.15,1-.24,1.38a4.88,4.88,0,0,1-.17-2.15c0-18.86-.14-37.73.06-56.59.09-8.66-1.69-16.56-7.14-23.44a5.75,5.75,0,0,0-2.67-2.71,26.75,26.75,0,0,0-10.9-6.07,27.47,27.47,0,0,0-19.91,2.17,30,30,0,0,0-11.21,10.55c-1,.34-.86,1.31-1.14,2.06A40.71,40.71,0,0,0,765.09,107c-.51.41-.24,1-.24,1.44q0,32.7,0,65.4c0,.61,0,1.21,0,1.82-.29,1-1.1.55-1.68.56-4,0-8,0-12,0a3.52,3.52,0,0,0-1.79.16A5.68,5.68,0,0,1,744.3,172c-.06-18.59,0-37.17,0-55.75,0-3.57-.15-7.14.17-10.7s.95-6.9,1.29-10.36a36.21,36.21,0,0,1,3.6-9.84c.55-.64,1.19-1.24,1.06-2.2A46.55,46.55,0,0,1,766,66.64,5.34,5.34,0,0,0,769,65a43.18,43.18,0,0,1,15-5c1.81.25,3.56-.3,5.35-.42a65.7,65.7,0,0,1,13.94.78,3.56,3.56,0,0,1,2.29.29.36.36,0,0,1-.43.18s.07.06.09,0c.71-.14,1.34.42,2,.2a33.13,33.13,0,0,1,9.47,3.64c.6.85,1.63,1,2.47,1.44a20.69,20.69,0,0,1,5.92,4.11A19.58,19.58,0,0,0,827.5,72.61Z"/><path class="cls-2" d="M873,163.15c-.75-.22-1.1-.9-1.6-1.41a8.26,8.26,0,0,0-2.15-2.26,22.14,22.14,0,0,1-3.64-5.1,1.29,1.29,0,0,0-.79-1.41,40.72,40.72,0,0,1-5.42-14.61,8.38,8.38,0,0,0-.08-2c-.65-2.58-.56-5.23-.85-7.85q0-31,0-62.07a4,4,0,0,0-.16-2,3.41,3.41,0,0,1,1-2.61,2.4,2.4,0,0,0,1.44-1.43,3.54,3.54,0,0,1,2.61-1,71.31,71.31,0,0,0,10.54,0A5.52,5.52,0,0,1,879,64.11a4.39,4.39,0,0,0-.15,2q0,30.18,0,60.36c0,.64.22,1.32-.18,1.93.68-.09.17-.59.17-.8q0-30.72,0-61.45c0-.47-.16-1,.23-1.39a4.74,4.74,0,0,1,.17,2.15c0,18.87.14,37.73-.05,56.59-.09,8.67,1.68,16.57,7.13,23.45a5.73,5.73,0,0,0,2.67,2.7,26.9,26.9,0,0,0,10.9,6.08,27.47,27.47,0,0,0,19.91-2.18A29.9,29.9,0,0,0,931,143c1-.34.86-1.31,1.14-2.05a40.89,40.89,0,0,0,3.23-12.12c.5-.41.23-1,.23-1.45q0-32.7,0-65.4c0-.6,0-1.21,0-1.81.29-1,1.11-.56,1.69-.56,4,0,8,0,12,0a3.6,3.6,0,0,0,1.78-.16,5.7,5.7,0,0,1,5.08,4.36c.05,18.58,0,37.16,0,55.74,0,3.57.14,7.15-.18,10.71s-.94,6.89-1.29,10.36a36.13,36.13,0,0,1-3.6,9.84c-.55.64-1.19,1.23-1.06,2.2a46.43,46.43,0,0,1-15.62,16.53,5.34,5.34,0,0,0-2.95,1.68,43.3,43.3,0,0,1-15,5c-1.81-.25-3.56.31-5.34.42a65,65,0,0,1-13.94-.78,3.61,3.61,0,0,1-2.29-.28.35.35,0,0,1,.42-.19s-.06-.05-.09-.05c-.7.14-1.34-.42-2-.2a33.22,33.22,0,0,1-9.47-3.63c-.6-.86-1.63-1-2.46-1.45a20.59,20.59,0,0,1-5.92-4.1A19.68,19.68,0,0,0,873,163.15Z"/><path class="cls-2" d="M974.63,10a3.68,3.68,0,0,1,2.58-1.06,67.7,67.7,0,0,0,10.17,0,6.25,6.25,0,0,1,5.07,4.71c.1,53.14,0,106.28,0,159.42a7,7,0,0,1-.21,2.88c-.59.45-1.28.21-1.92.23-4.26.12-8.52-.2-12.78.17a6.29,6.29,0,0,1-5.8-6.17,5.09,5.09,0,0,0,.15-2.16q0-74.94,0-149.88c0-1.13.37-2.29-.13-3.41a4.13,4.13,0,0,1,1.05-2.92A4.79,4.79,0,0,0,974.63,10Z"/><path class="cls-2" d="M1076.42,80.18a48.38,48.38,0,0,1,11,18.57c0,1.67.94,3.09,1.33,4.67.21.87-.09,2,.83,2.61a11.43,11.43,0,0,1,.71,3.66c-.33.6,0,1.27-.18,1.82,0,.31.41,0,.18.09-.07,0-.11,0-.11-.15,0-.4-.18-.83.2-1.16a26.29,26.29,0,0,1,.63,6.32c-.37,2.57,0,5.17-.3,7.75-.1.77-.14,1.56-.21,2.34a51.33,51.33,0,0,0-.86,5.93c-.16,4.07-1.64,7.75-3.24,11.41a5.26,5.26,0,0,0-1.43,2.82c-.06.27,0,.6-.36.71a7,7,0,0,0-1.59,3.24,31.13,31.13,0,0,1-5.16,7.3c-.46.47-1.22.7-1.21,1.53l-5.06,5.05c-.95.23-1.41,1-2,1.69a52.83,52.83,0,0,1-16.19,9.49,43.85,43.85,0,0,1-10.78,2.95.66.66,0,0,0-.48-.15c-.13,0-.27-.06-.39,0a.29.29,0,0,1,.26.2,20.56,20.56,0,0,1-4.8.72c-1.47.06-3-.42-4.4.32h-1.46a1.67,1.67,0,0,0-.73-.33c-1.7.1-3.44-.43-5.09.33h-.37c-.45-.77-1.37-.2-1.92-.68a1.1,1.1,0,0,1,1-.23,7.51,7.51,0,0,0-2,.12,2.28,2.28,0,0,1-1.53-.28c.07-.15.29-.1.36-.25-.33.1-.69,0-1,.16a53.58,53.58,0,0,1-19.25-7.16c-1.6-1-3.22-1.94-4.77-3a24.44,24.44,0,0,1-4.42-3.71,71.33,71.33,0,0,0-5.36-5.36A43.08,43.08,0,0,1,978.92,149a5.57,5.57,0,0,0-1.45-2.89,34,34,0,0,1-3.2-8.43,1.72,1.72,0,0,0-.45-1.76,1.47,1.47,0,0,1-.32-1.14,2.21,2.21,0,0,0-.39-2.18l0-.7c-.19-2.79-.77-5.54-.88-8.34-.5-4.78.11-9.49.75-14.2.17-1.25.47-2.48.52-3.75a22.51,22.51,0,0,1,1.73-6.17c1.16-1.83,1.55-4,2.71-5.83.65-1.6,1.71-3,2.16-4.69a37.25,37.25,0,0,1,5.46-7.61,4.45,4.45,0,0,0,1.76-2l3.53-3.51c.92-.28,1.4-1.07,2-1.75a53.58,53.58,0,0,1,16.74-9.85c.44.11.85.13,1.06-.39a31.57,31.57,0,0,1,7.32-2.15c.76.41,1.46-.07,2.18-.15.24-.08.5,0,.75-.07-.28,0-.58.07-.8-.19a14.76,14.76,0,0,1,4.42-.67,15.81,15.81,0,0,0,4-.07,63.83,63.83,0,0,1,12.28.57,1,1,0,0,0,.51-.15,16.82,16.82,0,0,1,4.75,1,2.11,2.11,0,0,0,1.8.46,43,43,0,0,1,12,4.73,1.37,1.37,0,0,0,1.45.76c3.62,2.14,7.23,4.3,10.21,7.34A65.39,65.39,0,0,0,1076.42,80.18Z"/><path class="cls-133" d="M1020.09,61.63a1.71,1.71,0,0,1-2.18,0l1.82-.35A.74.74,0,0,1,1020.09,61.63Z"/><path class="cls-158" d="M1020.09,61.63l-.36-.34a.3.3,0,0,1,.31-.06l1.22.13C1020.88,61.76,1020.46,61.56,1020.09,61.63Z"/><path class="cls-3" d="M1004.45,91.16l.75-.76a3.69,3.69,0,0,1,1.95-1.8c1.69-1.44,3.83-2.27,5.3-4,1.57-.64,3-1.69,4.71-1.91A4.11,4.11,0,0,0,1019,82a13.21,13.21,0,0,1,6.08-1.75c1.71-.21,3.44-.39,5.18-.45h2.49c.82-.08,1.61.2,2.43.2a10.12,10.12,0,0,0,2,.21c.84.25,1.8,0,2.52.69l6.93,2.14a5.86,5.86,0,0,1,3.22,1.52,49.62,49.62,0,0,1,7.9,5.84,1.61,1.61,0,0,1,1.22,1.25l4.4,6a6.39,6.39,0,0,1,1.79,3.35l1.51,3.57a5.42,5.42,0,0,1,1,3,3.11,3.11,0,0,0,.42,1.79c.78,1.61.65,3.41,1.11,5.08a15.11,15.11,0,0,0,.18,3.15c-.06,3,.27,6.12-.59,9.12a48.53,48.53,0,0,1-3.76,12.47,35.75,35.75,0,0,1-14.79,16c-.4.38-.74.88-1.41.76-1.14.53-2.48.7-3.29,1.83a9.39,9.39,0,0,1-2.17.37c-1.45.41-3,.42-4.33,1.32a17.48,17.48,0,0,1-3.07.45,11.7,11.7,0,0,0-2.64.19c-1.1-.12-2.24.29-3.31-.24a43.18,43.18,0,0,1-14.24-3.22,42.37,42.37,0,0,1-9.36-5.85,5.56,5.56,0,0,1-2.39-2.19c-1-1-1.41-2.56-2.79-3.27-.78-1-1.83-1.84-2-3.23l-3.18-7a1.3,1.3,0,0,1-.42-1.36c-.35-1.37-.7-2.73-1-4.1-.29-.17-.24-.39-.09-.63a66.86,66.86,0,0,1-.74-11.66,1.88,1.88,0,0,1-.13-2,5.73,5.73,0,0,0,.11-2.06c.5-1-.09-2.25.87-3.08a44.6,44.6,0,0,1,6-14.17c.62-.93,1.28-1.84,1.92-2.75A3.62,3.62,0,0,1,1004.45,91.16Z"/><path class="cls-94" d="M1035.17,80.21a6,6,0,0,1-2.35-.06,4.48,4.48,0,0,0-2.54,0A56.17,56.17,0,0,0,1019,82c1-1.53,2.85-1.72,4.22-1.88,3.8-.45,7.64-1.13,11.5-.4a17.15,17.15,0,0,0,3.58.23c.77,0,1.3.12,1.45,1a6,6,0,0,1-2.55-.4C1036.55,80.18,1035.81,80.52,1035.17,80.21Z"/></g></g></svg>